ISO-10303-21;
HEADER;
FILE_DESCRIPTION (( 'STEP AP214' ),
    '1' );
FILE_NAME ('base¡ª¡ªboard.STEP',
    '2026-05-19T11:58:04',
    ( '' ),
    ( '' ),
    'SwSTEP 2.0',
    'SolidWorks 2024',
    '' );
FILE_SCHEMA (( 'AUTOMOTIVE_DESIGN' ));
ENDSEC;

DATA;
#1 = VECTOR ( 'NONE', #93, 1000.000000000000000 ) ;
#2 = DIRECTION ( 'NONE',  ( 5.551115123125780730E-16, -1.000000000000000000, 2.661133787040694438E-16 ) ) ;
#3 = EDGE_CURVE ( 'NONE', #437, #343, #73, .T. ) ;
#4 = VERTEX_POINT ( 'NONE', #790 ) ;
#5 = CARTESIAN_POINT ( 'NONE',  ( -89.99999999999998579, 1.000000000000000000, 45.00000000000000000 ) ) ;
#6 = DIRECTION ( 'NONE',  ( 5.551115123125780730E-16, -1.000000000000000000, 2.661133787040694438E-16 ) ) ;
#7 = ORIENTED_EDGE ( 'NONE', *, *, #725, .F. ) ;
#8 = CARTESIAN_POINT ( 'NONE',  ( 78.14199999999999591, 5.999999999999998224, 4.004999999999967031 ) ) ;
#9 = VECTOR ( 'NONE', #545, 1000.000000000000000 ) ;
#10 = DIRECTION ( 'NONE',  ( -3.083952846180990774E-16, 0.000000000000000000, -1.000000000000000000 ) ) ;
#11 = VECTOR ( 'NONE', #239, 1000.000000000000000 ) ;
#12 = EDGE_LOOP ( 'NONE', ( #1046, #519, #173, #859 ) ) ;
#13 = LINE ( 'NONE', #1284, #1281 ) ;
#14 = FACE_OUTER_BOUND ( 'NONE', #1070, .T. ) ;
#15 = ADVANCED_FACE ( 'NONE', ( #85 ), #890, .T. ) ;
#16 = VERTEX_POINT ( 'NONE', #471 ) ;
#17 = DIRECTION ( 'NONE',  ( 0.000000000000000000, 0.000000000000000000, 1.000000000000000000 ) ) ;
#18 =( BOUNDED_CURVE ( )  B_SPLINE_CURVE ( 3, ( #5, #404, #902, #911 ),
 .UNSPECIFIED., .F., .F. ) 
 B_SPLINE_CURVE_WITH_KNOTS ( ( 4, 4 ),
 ( 0.000000000000000000, 1.570796326794896558 ),
 .UNSPECIFIED. ) 
 CURVE ( )  GEOMETRIC_REPRESENTATION_ITEM ( )  RATIONAL_B_SPLINE_CURVE ( ( 1.000000000000000000, 0.8047378541243649375, 0.8047378541243649375, 1.000000000000000000 ) ) 
 REPRESENTATION_ITEM ( '' )  );
#19 = FACE_OUTER_BOUND ( 'NONE', #461, .T. ) ;
#20 = ORIENTED_EDGE ( 'NONE', *, *, #23, .F. ) ;
#21 = FACE_OUTER_BOUND ( 'NONE', #1117, .T. ) ;
#22 = DIRECTION ( 'NONE',  ( 0.000000000000000000, -0.000000000000000000, 1.000000000000000000 ) ) ;
#23 = EDGE_CURVE ( 'NONE', #778, #1106, #291, .T. ) ;
#24 = ORIENTED_EDGE ( 'NONE', *, *, #61, .F. ) ;
#25 = EDGE_CURVE ( 'NONE', #1016, #666, #1133, .T. ) ;
#26 = DIRECTION ( 'NONE',  ( 0.000000000000000000, 0.000000000000000000, 1.000000000000000000 ) ) ;
#27 = CARTESIAN_POINT ( 'NONE',  ( 83.49999999999997158, 5.999999999999998224, 3.799999999999982059 ) ) ;
#28 = VERTEX_POINT ( 'NONE', #185 ) ;
#29 = CYLINDRICAL_SURFACE ( 'NONE', #523, 1.425000000000002709 ) ;
#30 = DIRECTION ( 'NONE',  ( -0.000000000000000000, -1.000000000000000000, -0.000000000000000000 ) ) ;
#31 = FACE_OUTER_BOUND ( 'NONE', #891, .T. ) ;
#32 = ORIENTED_EDGE ( 'NONE', *, *, #1079, .F. ) ;
#33 = DIRECTION ( 'NONE',  ( 1.000000000000000000, 0.000000000000000000, 0.000000000000000000 ) ) ;
#34 = ADVANCED_FACE ( 'NONE', ( #1273 ), #1265, .F. ) ;
#35 = AXIS2_PLACEMENT_3D ( 'NONE', #44, #837, #17 ) ;
#36 = DIRECTION ( 'NONE',  ( 1.000000000000000000, 0.000000000000000000, 0.000000000000000000 ) ) ;
#37 = AXIS2_PLACEMENT_3D ( 'NONE', #915, #1032, #26 ) ;
#38 = AXIS2_PLACEMENT_3D ( 'NONE', #330, #238, #434 ) ;
#39 = ORIENTED_EDGE ( 'NONE', *, *, #182, .F. ) ;
#40 = CARTESIAN_POINT ( 'NONE',  ( -89.99999999999998579, 3.000000000000000000, 45.00000000000000000 ) ) ;
#41 = DIRECTION ( 'NONE',  ( 1.000000000000000000, 5.551115123125778758E-16, 1.224646799147354440E-16 ) ) ;
#42 = FACE_BOUND ( 'NONE', #1214, .T. ) ;
#43 = ORIENTED_EDGE ( 'NONE', *, *, #1204, .T. ) ;
#44 = CARTESIAN_POINT ( 'NONE',  ( 83.49999999999997158, 5.999999999999998224, 4.499999999999968914 ) ) ;
#45 = EDGE_CURVE ( 'NONE', #207, #537, #1173, .T. ) ;
#46 = VERTEX_POINT ( 'NONE', #485 ) ;
#47 = FACE_OUTER_BOUND ( 'NONE', #473, .T. ) ;
#48 = FACE_BOUND ( 'NONE', #1062, .T. ) ;
#49 = DIRECTION ( 'NONE',  ( -1.541976423090495387E-16, 0.000000000000000000, -1.000000000000000000 ) ) ;
#50 = VERTEX_POINT ( 'NONE', #389 ) ;
#51 = AXIS2_PLACEMENT_3D ( 'NONE', #848, #932, #60 ) ;
#52 = ORIENTED_EDGE ( 'NONE', *, *, #119, .T. ) ;
#53 = DIRECTION ( 'NONE',  ( 5.551115123125778758E-16, -1.000000000000000000, 2.661133787040694438E-16 ) ) ;
#54 = AXIS2_PLACEMENT_3D ( 'NONE', #467, #347, #746 ) ;
#55 = DIRECTION ( 'NONE',  ( 0.000000000000000000, -1.000000000000000000, -0.000000000000000000 ) ) ;
#56 = AXIS2_PLACEMENT_3D ( 'NONE', #284, #1264, #965 ) ;
#57 = DIRECTION ( 'NONE',  ( 0.000000000000000000, 0.000000000000000000, -1.000000000000000000 ) ) ;
#58 = ORIENTED_EDGE ( 'NONE', *, *, #913, .T. ) ;
#59 = VERTEX_POINT ( 'NONE', #285 ) ;
#60 = DIRECTION ( 'NONE',  ( 1.000000000000000000, 0.000000000000000000, 0.000000000000000000 ) ) ;
#61 = EDGE_CURVE ( 'NONE', #503, #207, #676, .T. ) ;
#62 = LINE ( 'NONE', #858, #282 ) ;
#63 = ORIENTED_EDGE ( 'NONE', *, *, #1243, .T. ) ;
#64 = AXIS2_PLACEMENT_3D ( 'NONE', #987, #685, #487 ) ;
#65 = ORIENTED_EDGE ( 'NONE', *, *, #951, .F. ) ;
#66 = CARTESIAN_POINT ( 'NONE',  ( 89.99999999999998579, 1.000000000000000000, -45.00000000000000000 ) ) ;
#67 = CARTESIAN_POINT ( 'NONE',  ( 83.49999999999997158, 5.999999999999998224, 5.199999999999956657 ) ) ;
#68 = CIRCLE ( 'NONE', #964, 3.225000000000005862 ) ;
#69 = VERTEX_POINT ( 'NONE', #1176 ) ;
#70 = EDGE_CURVE ( 'NONE', #179, #1103, #482, .T. ) ;
#71 = PLANE ( 'NONE',  #845 ) ;
#72 = DIRECTION ( 'NONE',  ( -0.000000000000000000, -1.000000000000000000, -0.000000000000000000 ) ) ;
#73 = CIRCLE ( 'NONE', #298, 1.425000000000002709 ) ;
#74 = ORIENTED_EDGE ( 'NONE', *, *, #1194, .T. ) ;
#75 = PRODUCT_DEFINITION_SHAPE ( 'NONE', 'NONE',  #293 ) ;
#76 = ADVANCED_FACE ( 'NONE', ( #1082 ), #689, .T. ) ;
#77 = ADVANCED_FACE ( 'NONE', ( #989 ), #399, .T. ) ;
#78 = PLANE ( 'NONE',  #1039 ) ;
#79 =( LENGTH_UNIT ( ) NAMED_UNIT ( * ) SI_UNIT ( .MILLI., .METRE. ) );
#80 = DIRECTION ( 'NONE',  ( 0.000000000000000000, 0.000000000000000000, -1.000000000000000000 ) ) ;
#81 = UNCERTAINTY_MEASURE_WITH_UNIT (LENGTH_MEASURE( 1.000000000000000082E-05 ), #79, 'distance_accuracy_value', 'NONE');
#82 = ORIENTED_EDGE ( 'NONE', *, *, #677, .T. ) ;
#83 = DIRECTION ( 'NONE',  ( 1.000000000000000000, 0.000000000000000000, 0.000000000000000000 ) ) ;
#84 = DIRECTION ( 'NONE',  ( 1.000000000000000000, 0.000000000000000000, 0.000000000000000000 ) ) ;
#85 = FACE_OUTER_BOUND ( 'NONE', #764, .T. ) ;
#86 = AXIS2_PLACEMENT_3D ( 'NONE', #658, #175, #762 ) ;
#87 = CARTESIAN_POINT ( 'NONE',  ( 78.14199999999999591, 18.90000066000003187, 3.109999999999968789 ) ) ;
#88 = SURFACE_SIDE_STYLE ('',( #446 ) ) ;
#89 = DIRECTION ( 'NONE',  ( -0.000000000000000000, -1.000000000000000000, -0.000000000000000000 ) ) ;
#90 = EDGE_CURVE ( 'NONE', #594, #1103, #525, .T. ) ;
#91 = DIRECTION ( 'NONE',  ( -0.000000000000000000, -1.000000000000000000, -0.000000000000000000 ) ) ;
#92 = CARTESIAN_POINT ( 'NONE',  ( 70.08199999999997942, 28.02167813730651602, 39.01499999999996504 ) ) ;
#93 = DIRECTION ( 'NONE',  ( 3.344045254895050973E-16, 0.000000000000000000, 1.000000000000000000 ) ) ;
#94 = EDGE_CURVE ( 'NONE', #1196, #103, #894, .T. ) ;
#95 = ORIENTED_EDGE ( 'NONE', *, *, #1274, .F. ) ;
#96 = PLANE ( 'NONE',  #616 ) ;
#97 = ORIENTED_EDGE ( 'NONE', *, *, #474, .T. ) ;
#98 = CARTESIAN_POINT ( 'NONE',  ( 83.49999999999997158, 28.02167813730651602, 5.199999999999956657 ) ) ;
#99 = ORIENTED_EDGE ( 'NONE', *, *, #304, .T. ) ;
#100 = ORIENTED_EDGE ( 'NONE', *, *, #963, .F. ) ;
#101 = ADVANCED_FACE ( 'NONE', ( #604 ), #903, .F. ) ;
#102 = CARTESIAN_POINT ( 'NONE',  ( 89.99999999999998579, 3.000000000000000000, -45.00000000000000000 ) ) ;
#103 = VERTEX_POINT ( 'NONE', #231 ) ;
#104 = DIRECTION ( 'NONE',  ( 5.551115123125780730E-16, -1.000000000000000000, 2.661133787040694438E-16 ) ) ;
#105 = CARTESIAN_POINT ( 'NONE',  ( 83.49999999999997158, 18.90000066000004608, 39.19999999999995310 ) ) ;
#106 = CIRCLE ( 'NONE', #51, 0.6999999999999922951 ) ;
#107 = VERTEX_POINT ( 'NONE', #317 ) ;
#108 = DIRECTION ( 'NONE',  ( -1.541976423090495387E-16, 0.000000000000000000, -1.000000000000000000 ) ) ;
#109 = AXIS2_PLACEMENT_3D ( 'NONE', #266, #569, #1063 ) ;
#110 = EDGE_CURVE ( 'NONE', #775, #1025, #363, .T. ) ;
#111 = LINE ( 'NONE', #102, #1168 ) ;
#112 = EDGE_LOOP ( 'NONE', ( #681, #268 ) ) ;
#113 = CARTESIAN_POINT ( 'NONE',  ( 0.000000000000000000, 6.000000000000000000, 0.000000000000000000 ) ) ;
#114 = PLANE ( 'NONE',  #906 ) ;
#115 = EDGE_LOOP ( 'NONE', ( #292, #329 ) ) ;
#116 = CARTESIAN_POINT ( 'NONE',  ( 89.00000000000000000, 0.000000000000000000, 44.00000000000000000 ) ) ;
#117 = CIRCLE ( 'NONE', #86, 1.999999999999994893 ) ;
#118 = VECTOR ( 'NONE', #540, 1000.000000000000000 ) ;
#119 = EDGE_CURVE ( 'NONE', #1149, #710, #419, .T. ) ;
#120 = DIRECTION ( 'NONE',  ( 0.000000000000000000, -1.000000000000000000, -0.000000000000000000 ) ) ;
#121 = ORIENTED_EDGE ( 'NONE', *, *, #1150, .F. ) ;
#122 = FACE_BOUND ( 'NONE', #281, .T. ) ;
#123 = CARTESIAN_POINT ( 'NONE',  ( -90.00000000000001421, 3.000000000000000000, -45.00000000000000000 ) ) ;
#124 = CIRCLE ( 'NONE', #64, 0.6999999999999870770 ) ;
#125 = ORIENTED_EDGE ( 'NONE', *, *, #1170, .F. ) ;
#126 = CARTESIAN_POINT ( 'NONE',  ( 14.88199999999997836, 5.999999999999998224, 7.229999999999958682 ) ) ;
#127 = APPLICATION_CONTEXT ( 'automotive_design' ) ;
#128 = CARTESIAN_POINT ( 'NONE',  ( 78.14199999999999591, 5.999999999999998224, 1.309999999999975184 ) ) ;
#129 = ORIENTED_EDGE ( 'NONE', *, *, #502, .F. ) ;
#130 = DIRECTION ( 'NONE',  ( 0.000000000000000000, 0.000000000000000000, -1.000000000000000000 ) ) ;
#131 = CARTESIAN_POINT ( 'NONE',  ( 83.49999999999997158, 28.02167813730651602, 2.499999999999973355 ) ) ;
#132 = CYLINDRICAL_SURFACE ( 'NONE', #1166, 3.224999999999998312 ) ;
#133 = EDGE_CURVE ( 'NONE', #315, #1223, #416, .T. ) ;
#134 = EDGE_LOOP ( 'NONE', ( #1218, #731 ) ) ;
#135 = LINE ( 'NONE', #899, #592 ) ;
#136 = DIRECTION ( 'NONE',  ( 1.000000000000000000, 5.551115123125778758E-16, 1.224646799147354440E-16 ) ) ;
#137 = ORIENTED_EDGE ( 'NONE', *, *, #346, .T. ) ;
#138 = CARTESIAN_POINT ( 'NONE',  ( 14.88199999999997836, 18.90000065999999634, 4.004999999999959925 ) ) ;
#139 = CYLINDRICAL_SURFACE ( 'NONE', #1144, 0.6999999999999870770 ) ;
#140 = LINE ( 'NONE', #531, #118 ) ;
#141 = ORIENTED_EDGE ( 'NONE', *, *, #25, .T. ) ;
#142 = EDGE_CURVE ( 'NONE', #836, #775, #816, .T. ) ;
#143 = DIRECTION ( 'NONE',  ( 1.000000000000000000, -0.000000000000000000, 0.000000000000000000 ) ) ;
#144 = ORIENTED_EDGE ( 'NONE', *, *, #660, .T. ) ;
#145 = AXIS2_PLACEMENT_3D ( 'NONE', #615, #243, #33 ) ;
#146 = CIRCLE ( 'NONE', #1261, 1.425000000000002709 ) ;
#147 = VERTEX_POINT ( 'NONE', #338 ) ;
#148 = DIRECTION ( 'NONE',  ( 1.000000000000000000, 0.000000000000000000, 0.000000000000000000 ) ) ;
#149 = DIRECTION ( 'NONE',  ( 0.000000000000000000, -0.000000000000000000, 1.000000000000000000 ) ) ;
#150 = VECTOR ( 'NONE', #222, 1000.000000000000000 ) ;
#151 = CYLINDRICAL_SURFACE ( 'NONE', #853, 1.000000000000000888 ) ;
#152 = VERTEX_POINT ( 'NONE', #331 ) ;
#153 = FILL_AREA_STYLE_COLOUR ( '', #154 ) ;
#154 = COLOUR_RGB ( '',0.7921568627450980005, 0.8196078431372548767, 0.9333333333333333481 ) ;
#155 = EDGE_CURVE ( 'NONE', #59, #1016, #912, .T. ) ;
#156 = ORIENTED_EDGE ( 'NONE', *, *, #1150, .T. ) ;
#157 = DIRECTION ( 'NONE',  ( 0.000000000000000000, 0.000000000000000000, -1.000000000000000000 ) ) ;
#158 = CYLINDRICAL_SURFACE ( 'NONE', #217, 1.424999999999997824 ) ;
#159 = CARTESIAN_POINT ( 'NONE',  ( 70.08199999999997942, 5.999999999999998224, 37.58999999999996078 ) ) ;
#160 = VERTEX_POINT ( 'NONE', #216 ) ;
#161 = VECTOR ( 'NONE', #900, 1000.000000000000000 ) ;
#162 = EDGE_CURVE ( 'NONE', #315, #1167, #729, .T. ) ;
#163 = ORIENTED_EDGE ( 'NONE', *, *, #803, .F. ) ;
#164 = DIRECTION ( 'NONE',  ( 0.000000000000000000, 0.000000000000000000, 1.000000000000000000 ) ) ;
#165 = DIRECTION ( 'NONE',  ( -0.000000000000000000, -1.000000000000000000, -0.000000000000000000 ) ) ;
#166 = CIRCLE ( 'NONE', #878, 0.6999999999999922951 ) ;
#167 = CYLINDRICAL_SURFACE ( 'NONE', #498, 1.000000000000000888 ) ;
#168 = ORIENTED_EDGE ( 'NONE', *, *, #803, .T. ) ;
#169 = EDGE_LOOP ( 'NONE', ( #823, #941, #852, #1135 ) ) ;
#170 = LINE ( 'NONE', #1267, #551 ) ;
#171 = DIRECTION ( 'NONE',  ( 0.000000000000000000, 0.000000000000000000, -1.000000000000000000 ) ) ;
#172 =( BOUNDED_CURVE ( )  B_SPLINE_CURVE ( 3, ( #1247, #670, #765, #66 ),
 .UNSPECIFIED., .F., .F. ) 
 B_SPLINE_CURVE_WITH_KNOTS ( ( 4, 4 ),
 ( 1.570796326794896558, 3.141592653589793116 ),
 .UNSPECIFIED. ) 
 CURVE ( )  GEOMETRIC_REPRESENTATION_ITEM ( )  RATIONAL_B_SPLINE_CURVE ( ( 1.000000000000000000, 0.8047378541243649375, 0.8047378541243649375, 1.000000000000000000 ) ) 
 REPRESENTATION_ITEM ( '' )  );
#173 = ORIENTED_EDGE ( 'NONE', *, *, #926, .T. ) ;
#174 = FACE_OUTER_BOUND ( 'NONE', #176, .T. ) ;
#175 = DIRECTION ( 'NONE',  ( 0.000000000000000000, -1.000000000000000000, -0.000000000000000000 ) ) ;
#176 = EDGE_LOOP ( 'NONE', ( #661, #868 ) ) ;
#177 = ADVANCED_FACE ( 'NONE', ( #225 ), #1108, .T. ) ;
#178 = LINE ( 'NONE', #672, #536 ) ;
#179 = VERTEX_POINT ( 'NONE', #1115 ) ;
#180 = AXIS2_PLACEMENT_3D ( 'NONE', #405, #1027, #22 ) ;
#181 = ORIENTED_EDGE ( 'NONE', *, *, #706, .F. ) ;
#182 = EDGE_CURVE ( 'NONE', #28, #4, #995, .T. ) ;
#183 = CARTESIAN_POINT ( 'NONE',  ( 83.49999999999997158, 5.999999999999998224, 37.79999999999998295 ) ) ;
#184 = DIRECTION ( 'NONE',  ( 0.000000000000000000, 0.000000000000000000, 1.000000000000000000 ) ) ;
#185 = CARTESIAN_POINT ( 'NONE',  ( 86.50000000000000000, 3.000000000000000000, 41.49999999999999289 ) ) ;
#186 = CIRCLE ( 'NONE', #1073, 1.424999999999997380 ) ;
#187 = AXIS2_PLACEMENT_3D ( 'NONE', #1123, #720, #1018 ) ;
#188 = CARTESIAN_POINT ( 'NONE',  ( 83.49999999999997158, 18.90000066000003542, 4.499999999999968914 ) ) ;
#189 = CARTESIAN_POINT ( 'NONE',  ( 89.00000000000000000, 0.000000000000000000, 44.00000000000000000 ) ) ;
#190 = VERTEX_POINT ( 'NONE', #505 ) ;
#191 = ADVANCED_FACE ( 'NONE', ( #14 ), #139, .F. ) ;
#192 = FACE_OUTER_BOUND ( 'NONE', #811, .T. ) ;
#193 = CIRCLE ( 'NONE', #863, 2.694999999999989182 ) ;
#194 = PLANE ( 'NONE',  #1178 ) ;
#195 = CARTESIAN_POINT ( 'NONE',  ( 0.000000000000000000, 6.000000000000000000, 0.000000000000000000 ) ) ;
#196 = VERTEX_POINT ( 'NONE', #105 ) ;
#197 = FACE_OUTER_BOUND ( 'NONE', #242, .T. ) ;
#198 = DIRECTION ( 'NONE',  ( 5.551115123125778758E-16, -1.000000000000000000, 2.661133787040694438E-16 ) ) ;
#199 = DIRECTION ( 'NONE',  ( 0.000000000000000000, -0.000000000000000000, 1.000000000000000000 ) ) ;
#200 = ADVANCED_FACE ( 'NONE', ( #530, #521 ), #114, .F. ) ;
#201 = CIRCLE ( 'NONE', #1157, 0.8949999999999930234 ) ;
#202 = ORIENTED_EDGE ( 'NONE', *, *, #1263, .T. ) ;
#203 = CIRCLE ( 'NONE', #591, 1.424999999999999156 ) ;
#204 = CIRCLE ( 'NONE', #373, 3.224999999999998757 ) ;
#205 = AXIS2_PLACEMENT_3D ( 'NONE', #1174, #981, #300 ) ;
#206 = DIRECTION ( 'NONE',  ( -0.000000000000000000, -1.000000000000000000, -0.000000000000000000 ) ) ;
#207 = VERTEX_POINT ( 'NONE', #897 ) ;
#208 = CARTESIAN_POINT ( 'NONE',  ( 83.49999999999997158, 18.90000066000004608, 37.79999999999998295 ) ) ;
#209 = DIRECTION ( 'NONE',  ( 1.000000000000000000, 0.000000000000000000, 0.000000000000000000 ) ) ;
#210 = ORIENTED_EDGE ( 'NONE', *, *, #926, .F. ) ;
#211 = EDGE_CURVE ( 'NONE', #532, #1149, #703, .T. ) ;
#212 = ADVANCED_FACE ( 'NONE', ( #1200, #949 ), #636, .T. ) ;
#213 = LINE ( 'NONE', #1092, #1013 ) ;
#214 = ORIENTED_EDGE ( 'NONE', *, *, #258, .F. ) ;
#215 = DIRECTION ( 'NONE',  ( 0.000000000000000000, 0.000000000000000000, 1.000000000000000000 ) ) ;
#216 = CARTESIAN_POINT ( 'NONE',  ( -90.00000000000001421, 1.000000000000000000, -45.00000000000000000 ) ) ;
#217 = AXIS2_PLACEMENT_3D ( 'NONE', #554, #165, #1237 ) ;
#218 = ORIENTED_EDGE ( 'NONE', *, *, #339, .T. ) ;
#219 = AXIS2_PLACEMENT_3D ( 'NONE', #518, #328, #919 ) ;
#220 = CARTESIAN_POINT ( 'NONE',  ( 78.14199999999999591, 18.90000066000003187, 4.004999999999967031 ) ) ;
#221 = VECTOR ( 'NONE', #856, 1000.000000000000000 ) ;
#222 = DIRECTION ( 'NONE',  ( -0.000000000000000000, -1.000000000000000000, -0.000000000000000000 ) ) ;
#223 = ORIENTED_EDGE ( 'NONE', *, *, #349, .F. ) ;
#224 = FACE_OUTER_BOUND ( 'NONE', #705, .T. ) ;
#225 = FACE_OUTER_BOUND ( 'NONE', #1084, .T. ) ;
#226 = ORIENTED_EDGE ( 'NONE', *, *, #142, .F. ) ;
#227 = CARTESIAN_POINT ( 'NONE',  ( 14.88199999999997836, 18.90000065999999634, 4.004999999999959925 ) ) ;
#228 = LINE ( 'NONE', #928, #712 ) ;
#229 = ORIENTED_EDGE ( 'NONE', *, *, #774, .T. ) ;
#230 = DIRECTION ( 'NONE',  ( 1.000000000000000000, 0.000000000000000000, 0.000000000000000000 ) ) ;
#231 = CARTESIAN_POINT ( 'NONE',  ( 78.14199999999999591, 5.999999999999998224, 4.899999999999964828 ) ) ;
#232 = LINE ( 'NONE', #923, #1240 ) ;
#233 = EDGE_LOOP ( 'NONE', ( #97, #624 ) ) ;
#234 = DIRECTION ( 'NONE',  ( 3.083952846180990774E-16, 0.000000000000000000, 1.000000000000000000 ) ) ;
#235 = FACE_OUTER_BOUND ( 'NONE', #1158, .T. ) ;
#236 = AXIS2_PLACEMENT_3D ( 'NONE', #602, #198, #789 ) ;
#237 = EDGE_LOOP ( 'NONE', ( #499, #566, #945, #751 ) ) ;
#238 = DIRECTION ( 'NONE',  ( -0.000000000000000000, -1.000000000000000000, -0.000000000000000000 ) ) ;
#239 = DIRECTION ( 'NONE',  ( -0.000000000000000000, -1.000000000000000000, -0.000000000000000000 ) ) ;
#240 = EDGE_CURVE ( 'NONE', #767, #1167, #408, .T. ) ;
#241 = DIRECTION ( 'NONE',  ( 0.000000000000000000, -0.000000000000000000, 1.000000000000000000 ) ) ;
#242 = EDGE_LOOP ( 'NONE', ( #264, #645, #400, #641 ) ) ;
#243 = DIRECTION ( 'NONE',  ( 5.551115123125780730E-16, -1.000000000000000000, 2.661133787040694438E-16 ) ) ;
#244 = AXIS2_PLACEMENT_3D ( 'NONE', #571, #1188, #80 ) ;
#245 = ORIENTED_EDGE ( 'NONE', *, *, #45, .F. ) ;
#246 = DIRECTION ( 'NONE',  ( -1.672022627447525486E-16, 0.000000000000000000, -1.000000000000000000 ) ) ;
#247 = PLANE ( 'NONE',  #749 ) ;
#248 = DIRECTION ( 'NONE',  ( -0.000000000000000000, -1.000000000000000000, -0.000000000000000000 ) ) ;
#249 = VERTEX_POINT ( 'NONE', #840 ) ;
#250 = ADVANCED_FACE ( 'NONE', ( #1131, #1036 ), #642, .F. ) ;
#251 = LINE ( 'NONE', #805, #535 ) ;
#252 = ORIENTED_EDGE ( 'NONE', *, *, #1222, .F. ) ;
#253 = CARTESIAN_POINT ( 'NONE',  ( -86.49999999999998579, 6.000000000000000000, 41.49999999999999289 ) ) ;
#254 = CARTESIAN_POINT ( 'NONE',  ( 70.08199999999997942, 5.999999999999998224, 39.01499999999996504 ) ) ;
#255 = CYLINDRICAL_SURFACE ( 'NONE', #478, 0.6999999999999853006 ) ;
#256 = ORIENTED_EDGE ( 'NONE', *, *, #881, .T. ) ;
#257 = ADVANCED_FACE ( 'NONE', ( #260 ), #247, .F. ) ;
#258 = EDGE_CURVE ( 'NONE', #1206, #1201, #539, .T. ) ;
#259 = ORIENTED_EDGE ( 'NONE', *, *, #431, .T. ) ;
#260 = FACE_OUTER_BOUND ( 'NONE', #299, .T. ) ;
#261 = CIRCLE ( 'NONE', #704, 0.8949999999999930234 ) ;
#262 = LINE ( 'NONE', #1132, #779 ) ;
#263 = CARTESIAN_POINT ( 'NONE',  ( 14.88199999999997836, 5.999999999999998224, 2.579999999999961879 ) ) ;
#264 = ORIENTED_EDGE ( 'NONE', *, *, #881, .F. ) ;
#265 = AXIS2_PLACEMENT_3D ( 'NONE', #1009, #713, #825 ) ;
#266 = CARTESIAN_POINT ( 'NONE',  ( 0.000000000000000000, 6.000000000000000000, 0.000000000000000000 ) ) ;
#267 = CARTESIAN_POINT ( 'NONE',  ( -86.49999999999998579, 3.000000000000000000, 41.49999999999999289 ) ) ;
#268 = ORIENTED_EDGE ( 'NONE', *, *, #3, .F. ) ;
#269 = VECTOR ( 'NONE', #108, 1000.000000000000000 ) ;
#270 = ADVANCED_FACE ( 'NONE', ( #847 ), #1043, .T. ) ;
#271 = DIRECTION ( 'NONE',  ( 1.672022627447525240E-16, 0.000000000000000000, 1.000000000000000000 ) ) ;
#272 = CARTESIAN_POINT ( 'NONE',  ( 78.14199999999999591, 18.90000066000003187, 4.004999999999967031 ) ) ;
#273 = EDGE_LOOP ( 'NONE', ( #614, #125 ) ) ;
#274 = APPLICATION_CONTEXT ( 'automotive_design' ) ;
#275 = CYLINDRICAL_SURFACE ( 'NONE', #56, 1.999999999999996225 ) ;
#276 = ADVANCED_FACE ( 'NONE', ( #47 ), #1231, .F. ) ;
#277 = DIRECTION ( 'NONE',  ( -0.000000000000000000, -1.000000000000000000, -0.000000000000000000 ) ) ;
#278 = ORIENTED_EDGE ( 'NONE', *, *, #45, .T. ) ;
#279 = VECTOR ( 'NONE', #354, 1000.000000000000000 ) ;
#280 = CARTESIAN_POINT ( 'NONE',  ( 83.49999999999997158, 18.90000066000003542, 5.199999999999956657 ) ) ;
#281 = EDGE_LOOP ( 'NONE', ( #839, #1242 ) ) ;
#282 = VECTOR ( 'NONE', #72, 1000.000000000000000 ) ;
#283 = EDGE_CURVE ( 'NONE', #406, #384, #1072, .T. ) ;
#284 = CARTESIAN_POINT ( 'NONE',  ( 83.49999999999997158, 28.02167813730651602, 4.499999999999968914 ) ) ;
#285 = CARTESIAN_POINT ( 'NONE',  ( 83.49999999999997158, 18.90000066000004608, 36.49999999999997158 ) ) ;
#286 = AXIS2_PLACEMENT_3D ( 'NONE', #113, #496, #702 ) ;
#287 = EDGE_CURVE ( 'NONE', #468, #50, #1239, .T. ) ;
#288 = AXIS2_PLACEMENT_3D ( 'NONE', #409, #1198, #691 ) ;
#289 = LINE ( 'NONE', #678, #150 ) ;
#290 = CARTESIAN_POINT ( 'NONE',  ( -89.00000000000001421, 1.000000000000000000, -45.00000000000000000 ) ) ;
#291 = LINE ( 'NONE', #872, #365 ) ;
#292 = ORIENTED_EDGE ( 'NONE', *, *, #633, .T. ) ;
#293 = PRODUCT_DEFINITION ( 'æœ', '', #728, #659 ) ;
#294 = DIRECTION ( 'NONE',  ( 1.000000000000000000, 0.000000000000000000, -3.344045254895050480E-16 ) ) ;
#295 = AXIS2_PLACEMENT_3D ( 'NONE', #92, #296, #597 ) ;
#296 = DIRECTION ( 'NONE',  ( -0.000000000000000000, -1.000000000000000000, -0.000000000000000000 ) ) ;
#297 = CARTESIAN_POINT ( 'NONE',  ( -86.49999999999998579, 6.000000000000000000, 41.49999999999999289 ) ) ;
#298 = AXIS2_PLACEMENT_3D ( 'NONE', #577, #671, #694 ) ;
#299 = EDGE_LOOP ( 'NONE', ( #1033, #392, #121, #804 ) ) ;
#300 = DIRECTION ( 'NONE',  ( 0.000000000000000000, 0.000000000000000000, -1.000000000000000000 ) ) ;
#301 = ORIENTED_EDGE ( 'NONE', *, *, #1222, .T. ) ;
#302 = DIRECTION ( 'NONE',  ( 0.000000000000000000, 1.000000000000000000, 0.000000000000000000 ) ) ;
#303 = EDGE_LOOP ( 'NONE', ( #1094, #855, #543, #144 ) ) ;
#304 = EDGE_CURVE ( 'NONE', #666, #1016, #117, .T. ) ;
#305 = ORIENTED_EDGE ( 'NONE', *, *, #283, .F. ) ;
#306 = CIRCLE ( 'NONE', #1262, 1.424999999999995826 ) ;
#307 = DIRECTION ( 'NONE',  ( -3.344045254895050480E-16, 0.000000000000000000, -1.000000000000000000 ) ) ;
#308 = EDGE_LOOP ( 'NONE', ( #844, #341, #583, #52 ) ) ;
#309 = DIRECTION ( 'NONE',  ( -1.000000000000000000, 0.000000000000000000, 0.000000000000000000 ) ) ;
#310 = DIRECTION ( 'NONE',  ( -0.000000000000000000, -1.000000000000000000, -0.000000000000000000 ) ) ;
#311 = ORIENTED_EDGE ( 'NONE', *, *, #877, .F. ) ;
#312 = DIRECTION ( 'NONE',  ( 0.000000000000000000, -1.000000000000000000, -0.000000000000000000 ) ) ;
#313 = VECTOR ( 'NONE', #561, 1000.000000000000000 ) ;
#314 = DIRECTION ( 'NONE',  ( -0.000000000000000000, -1.000000000000000000, -0.000000000000000000 ) ) ;
#315 = VERTEX_POINT ( 'NONE', #542 ) ;
#316 = CARTESIAN_POINT ( 'NONE',  ( -90.00000000000001421, 1.000000000000000000, -45.00000000000000000 ) ) ;
#317 = CARTESIAN_POINT ( 'NONE',  ( -89.99999999999998579, 1.000000000000000000, 45.00000000000000000 ) ) ;
#318 = ORIENTED_EDGE ( 'NONE', *, *, #502, .T. ) ;
#319 = CARTESIAN_POINT ( 'NONE',  ( 78.14199999999999591, 5.999999999999998224, 3.109999999999968789 ) ) ;
#320 = CYLINDRICAL_SURFACE ( 'NONE', #603, 1.424999999999997824 ) ;
#321 = ORIENTED_EDGE ( 'NONE', *, *, #386, .F. ) ;
#322 = CARTESIAN_POINT ( 'NONE',  ( 0.000000000000000000, 6.000000000000000000, 0.000000000000000000 ) ) ;
#323 = CARTESIAN_POINT ( 'NONE',  ( 78.14199999999999591, 5.999999999999998224, 4.004999999999967031 ) ) ;
#324 = DIRECTION ( 'NONE',  ( 0.000000000000000000, 0.000000000000000000, -1.000000000000000000 ) ) ;
#325 = ORIENTED_EDGE ( 'NONE', *, *, #110, .F. ) ;
#326 = LINE ( 'NONE', #723, #934 ) ;
#327 = ADVANCED_FACE ( 'NONE', ( #755 ), #1045, .T. ) ;
#328 = DIRECTION ( 'NONE',  ( -0.000000000000000000, -1.000000000000000000, -0.000000000000000000 ) ) ;
#329 = ORIENTED_EDGE ( 'NONE', *, *, #240, .T. ) ;
#330 = CARTESIAN_POINT ( 'NONE',  ( 78.14199999999999591, 28.02167813730651602, 4.004999999999967031 ) ) ;
#331 = CARTESIAN_POINT ( 'NONE',  ( 70.08199999999997942, 18.90000066000003898, 42.23999999999997357 ) ) ;
#332 = DIRECTION ( 'NONE',  ( 1.000000000000000000, -0.000000000000000000, 0.000000000000000000 ) ) ;
#333 = AXIS2_PLACEMENT_3D ( 'NONE', #757, #378, #184 ) ;
#334 = ORIENTED_EDGE ( 'NONE', *, *, #1021, .T. ) ;
#335 = DIRECTION ( 'NONE',  ( -0.000000000000000000, -1.000000000000000000, -0.000000000000000000 ) ) ;
#336 = ORIENTED_EDGE ( 'NONE', *, *, #1202, .T. ) ;
#337 = LINE ( 'NONE', #1130, #1091 ) ;
#338 = CARTESIAN_POINT ( 'NONE',  ( 70.08199999999997942, 18.90000066000003898, 37.58999999999996078 ) ) ;
#339 = EDGE_CURVE ( 'NONE', #652, #777, #261, .T. ) ;
#340 = CARTESIAN_POINT ( 'NONE',  ( 14.88199999999997836, 5.999999999999998224, 4.004999999999959925 ) ) ;
#341 = ORIENTED_EDGE ( 'NONE', *, *, #1041, .T. ) ;
#342 = DIRECTION ( 'NONE',  ( -0.000000000000000000, -1.000000000000000000, -0.000000000000000000 ) ) ;
#343 = VERTEX_POINT ( 'NONE', #159 ) ;
#344 = CARTESIAN_POINT ( 'NONE',  ( 83.49999999999997158, 5.999999999999998224, 4.499999999999968914 ) ) ;
#345 = FACE_OUTER_BOUND ( 'NONE', #864, .T. ) ;
#346 = EDGE_CURVE ( 'NONE', #537, #1249, #1057, .T. ) ;
#347 = DIRECTION ( 'NONE',  ( 5.551115123125780730E-16, -1.000000000000000000, 2.661133787040694438E-16 ) ) ;
#348 = ORIENTED_EDGE ( 'NONE', *, *, #155, .F. ) ;
#349 = EDGE_CURVE ( 'NONE', #722, #778, #367, .T. ) ;
#350 = EDGE_LOOP ( 'NONE', ( #1100, #960, #734, #156 ) ) ;
#351 = CARTESIAN_POINT ( 'NONE',  ( 78.14199999999999591, 28.02167813730651602, 4.004999999999967031 ) ) ;
#352 = AXIS2_PLACEMENT_3D ( 'NONE', #1140, #241, #1037 ) ;
#353 = VECTOR ( 'NONE', #809, 1000.000000000000000 ) ;
#354 = DIRECTION ( 'NONE',  ( -0.000000000000000000, -1.000000000000000000, -0.000000000000000000 ) ) ;
#355 = PLANE ( 'NONE',  #606 ) ;
#356 = ADVANCED_FACE ( 'NONE', ( #443 ), #255, .F. ) ;
#357 = EDGE_LOOP ( 'NONE', ( #218, #1277 ) ) ;
#358 = DIRECTION ( 'NONE',  ( 0.000000000000000000, 0.000000000000000000, 1.000000000000000000 ) ) ;
#359 = ORIENTED_EDGE ( 'NONE', *, *, #3, .T. ) ;
#360 = DIRECTION ( 'NONE',  ( -1.000000000000000000, 0.000000000000000000, 1.672022627447525240E-16 ) ) ;
#361 = DIRECTION ( 'NONE',  ( 0.000000000000000000, -1.000000000000000000, -0.000000000000000000 ) ) ;
#362 = ORIENTED_EDGE ( 'NONE', *, *, #1202, .F. ) ;
#363 = CIRCLE ( 'NONE', #265, 2.694999999999991847 ) ;
#364 = VECTOR ( 'NONE', #230, 1000.000000000000000 ) ;
#365 = VECTOR ( 'NONE', #797, 1000.000000000000000 ) ;
#366 = FACE_OUTER_BOUND ( 'NONE', #634, .T. ) ;
#367 = LINE ( 'NONE', #850, #810 ) ;
#368 = ORIENTED_EDGE ( 'NONE', *, *, #991, .T. ) ;
#369 = ADVANCED_FACE ( 'NONE', ( #1061 ), #944, .F. ) ;
#370 = AXIS2_PLACEMENT_3D ( 'NONE', #1211, #927, #812 ) ;
#371 = AXIS2_PLACEMENT_3D ( 'NONE', #8, #407, #358 ) ;
#372 = DIRECTION ( 'NONE',  ( 5.551115123125780730E-16, -1.000000000000000000, 2.661133787040694438E-16 ) ) ;
#373 = AXIS2_PLACEMENT_3D ( 'NONE', #1224, #736, #833 ) ;
#374 = FACE_OUTER_BOUND ( 'NONE', #962, .T. ) ;
#375 = AXIS2_PLACEMENT_3D ( 'NONE', #1080, #396, #998 ) ;
#376 = ORIENTED_EDGE ( 'NONE', *, *, #567, .F. ) ;
#377 = DIRECTION ( 'NONE',  ( 1.000000000000000000, 0.000000000000000000, 0.000000000000000000 ) ) ;
#378 = DIRECTION ( 'NONE',  ( 0.000000000000000000, -1.000000000000000000, -0.000000000000000000 ) ) ;
#379 = EDGE_LOOP ( 'NONE', ( #619, #129 ) ) ;
#380 = VERTEX_POINT ( 'NONE', #644 ) ;
#381 = CIRCLE ( 'NONE', #780, 2.694999999999991847 ) ;
#382 = CARTESIAN_POINT ( 'NONE',  ( 83.49999999999997158, 18.90000066000004608, 38.49999999999996447 ) ) ;
#383 =( NAMED_UNIT ( * ) PLANE_ANGLE_UNIT ( ) SI_UNIT ( $, .RADIAN. ) );
#384 = VERTEX_POINT ( 'NONE', #1233 ) ;
#385 = AXIS2_PLACEMENT_3D ( 'NONE', #188, #574, #377 ) ;
#386 = EDGE_CURVE ( 'NONE', #147, #343, #1238, .T. ) ;
#387 = DIRECTION ( 'NONE',  ( -0.000000000000000000, -1.000000000000000000, -0.000000000000000000 ) ) ;
#388 =( NAMED_UNIT ( * ) PLANE_ANGLE_UNIT ( ) SI_UNIT ( $, .RADIAN. ) );
#389 = CARTESIAN_POINT ( 'NONE',  ( 83.49999999999997158, 5.999999999999998224, 39.19999999999995310 ) ) ;
#390 = CARTESIAN_POINT ( 'NONE',  ( 78.14199999999999591, 28.02167813730651602, 6.699999999999958433 ) ) ;
#391 = CARTESIAN_POINT ( 'NONE',  ( -90.00000000000001421, 0.4142135623730951455, -45.00000000000000000 ) ) ;
#392 = ORIENTED_EDGE ( 'NONE', *, *, #1111, .T. ) ;
#393 = EDGE_LOOP ( 'NONE', ( #214, #318, #648, #32 ) ) ;
#394 = VECTOR ( 'NONE', #489, 1000.000000000000000 ) ;
#395 = EDGE_CURVE ( 'NONE', #828, #836, #1067, .T. ) ;
#396 = DIRECTION ( 'NONE',  ( 0.000000000000000000, -1.000000000000000000, -0.000000000000000000 ) ) ;
#397 = ORIENTED_EDGE ( 'NONE', *, *, #162, .F. ) ;
#398 = CARTESIAN_POINT ( 'NONE',  ( -90.00000000000001421, 1.000000000000000000, -44.00000000000000000 ) ) ;
#399 = PLANE ( 'NONE',  #180 ) ;
#400 = ORIENTED_EDGE ( 'NONE', *, *, #386, .T. ) ;
#401 = ADVANCED_FACE ( 'NONE', ( #1258 ), #355, .F. ) ;
#402 = LINE ( 'NONE', #1086, #458 ) ;
#403 = VERTEX_POINT ( 'NONE', #67 ) ;
#404 = CARTESIAN_POINT ( 'NONE',  ( -90.00000000000000000, 0.4142135623730949789, 45.00000000000000000 ) ) ;
#405 = CARTESIAN_POINT ( 'NONE',  ( 0.000000000000000000, 6.000000000000000000, 0.000000000000000000 ) ) ;
#406 = VERTEX_POINT ( 'NONE', #263 ) ;
#407 = DIRECTION ( 'NONE',  ( 0.000000000000000000, -1.000000000000000000, -0.000000000000000000 ) ) ;
#408 = CIRCLE ( 'NONE', #578, 1.999999999999996669 ) ;
#409 = CARTESIAN_POINT ( 'NONE',  ( 83.49999999999997158, 5.999999999999998224, 38.49999999999996447 ) ) ;
#410 = ORIENTED_EDGE ( 'NONE', *, *, #133, .F. ) ;
#411 = LINE ( 'NONE', #98, #791 ) ;
#412 = CARTESIAN_POINT ( 'NONE',  ( 83.49999999999997158, 28.02167813730651602, 36.49999999999997158 ) ) ;
#413 = ORIENTED_EDGE ( 'NONE', *, *, #991, .F. ) ;
#414 = LINE ( 'NONE', #438, #768 ) ;
#415 = FACE_OUTER_BOUND ( 'NONE', #424, .T. ) ;
#416 = CIRCLE ( 'NONE', #924, 2.000000000000001776 ) ;
#417 = ORIENTED_EDGE ( 'NONE', *, *, #860, .F. ) ;
#418 = CYLINDRICAL_SURFACE ( 'NONE', #563, 1.000000000000000888 ) ;
#419 = LINE ( 'NONE', #123, #980 ) ;
#420 = VERTEX_POINT ( 'NONE', #651 ) ;
#421 = ADVANCED_FACE ( 'NONE', ( #1053 ), #167, .T. ) ;
#422 = CARTESIAN_POINT ( 'NONE',  ( 83.49999999999997158, 18.90000066000003542, 6.499999999999966249 ) ) ;
#423 = DIRECTION ( 'NONE',  ( -0.000000000000000000, -1.000000000000000000, -0.000000000000000000 ) ) ;
#424 = EDGE_LOOP ( 'NONE', ( #413, #814, #278, #137 ) ) ;
#425 = CARTESIAN_POINT ( 'NONE',  ( 70.08199999999997942, 28.02167813730651602, 39.01499999999996504 ) ) ;
#426 = CARTESIAN_POINT ( 'NONE',  ( 78.14199999999999591, 28.02167813730651602, 4.004999999999967031 ) ) ;
#427 = CARTESIAN_POINT ( 'NONE',  ( 78.14199999999999591, 18.90000066000003187, 6.699999999999958433 ) ) ;
#428 = ORIENTED_EDGE ( 'NONE', *, *, #142, .T. ) ;
#429 = CIRCLE ( 'NONE', #986, 1.424999999999999156 ) ;
#430 = CARTESIAN_POINT ( 'NONE',  ( 14.88199999999997836, 18.90000065999999634, 7.229999999999958682 ) ) ;
#431 = EDGE_CURVE ( 'NONE', #1260, #666, #62, .T. ) ;
#432 = CARTESIAN_POINT ( 'NONE',  ( 83.49999999999997158, 5.999999999999998224, 6.499999999999966249 ) ) ;
#433 = VERTEX_POINT ( 'NONE', #463 ) ;
#434 = DIRECTION ( 'NONE',  ( 0.000000000000000000, 0.000000000000000000, -1.000000000000000000 ) ) ;
#435 = DIRECTION ( 'NONE',  ( 0.000000000000000000, 0.000000000000000000, 1.000000000000000000 ) ) ;
#436 = LINE ( 'NONE', #1052, #279 ) ;
#437 = VERTEX_POINT ( 'NONE', #1156 ) ;
#438 = CARTESIAN_POINT ( 'NONE',  ( -90.00000000000001421, 3.000000000000000000, -45.00000000000000000 ) ) ;
#439 = EDGE_CURVE ( 'NONE', #557, #380, #669, .T. ) ;
#440 = ORIENTED_EDGE ( 'NONE', *, *, #90, .T. ) ;
#441 = CARTESIAN_POINT ( 'NONE',  ( 0.000000000000000000, 3.000000000000000000, 0.000000000000000000 ) ) ;
#442 = FACE_BOUND ( 'NONE', #115, .T. ) ;
#443 = FACE_OUTER_BOUND ( 'NONE', #169, .T. ) ;
#444 = AXIS2_PLACEMENT_3D ( 'NONE', #254, #55, #1020 ) ;
#445 = ORIENTED_EDGE ( 'NONE', *, *, #1049, .F. ) ;
#446 = SURFACE_STYLE_FILL_AREA ( #476 ) ;
#447 = VECTOR ( 'NONE', #1155, 1000.000000000000000 ) ;
#448 = PRODUCT ( 'base\X2\20142014\X0\board', 'base\X2\20142014\X0\board', '', ( #453 ) ) ;
#449 = ORIENTED_EDGE ( 'NONE', *, *, #617, .F. ) ;
#450 = DIRECTION ( 'NONE',  ( -1.000000000000000000, 0.000000000000000000, -0.000000000000000000 ) ) ;
#451 = CARTESIAN_POINT ( 'NONE',  ( 86.49999999999998579, 6.000000000000000000, -41.49999999999999289 ) ) ;
#452 = CARTESIAN_POINT ( 'NONE',  ( 83.49999999999997158, 5.999999999999998224, 38.49999999999996447 ) ) ;
#453 = PRODUCT_CONTEXT ( 'NONE', #127, 'mechanical' ) ;
#454 = ORIENTED_EDGE ( 'NONE', *, *, #609, .T. ) ;
#455 = EDGE_LOOP ( 'NONE', ( #888, #65, #252, #1078, #795, #506, #39 ) ) ;
#456 = DIRECTION ( 'NONE',  ( 1.000000000000000000, 1.075797504481741167E-15, 0.000000000000000000 ) ) ;
#457 = DIRECTION ( 'NONE',  ( -0.000000000000000000, -1.000000000000000000, -0.000000000000000000 ) ) ;
#458 = VECTOR ( 'NONE', #480, 1000.000000000000000 ) ;
#459 = ORIENTED_EDGE ( 'NONE', *, *, #1170, .T. ) ;
#460 = ADVANCED_FACE ( 'NONE', ( #374 ), #761, .T. ) ;
#461 = EDGE_LOOP ( 'NONE', ( #718, #884, #1109, #807 ) ) ;
#462 = DIRECTION ( 'NONE',  ( -0.000000000000000000, -1.000000000000000000, -0.000000000000000000 ) ) ;
#463 = CARTESIAN_POINT ( 'NONE',  ( 86.50000000000000000, 6.000000000000000000, 41.49999999999999289 ) ) ;
#464 = ORIENTED_EDGE ( 'NONE', *, *, #1243, .F. ) ;
#465 = EDGE_CURVE ( 'NONE', #196, #50, #654, .T. ) ;
#466 = PLANE ( 'NONE',  #1271 ) ;
#467 = CARTESIAN_POINT ( 'NONE',  ( 83.49999999999997158, 18.90000066000003542, 4.499999999999968914 ) ) ;
#468 = VERTEX_POINT ( 'NONE', #183 ) ;
#469 = ADVANCED_FACE ( 'NONE', ( #1252 ), #71, .F. ) ;
#470 = CARTESIAN_POINT ( 'NONE',  ( 42.49999999999998579, 18.90000066000001766, 21.49999999999996092 ) ) ;
#471 = CARTESIAN_POINT ( 'NONE',  ( -88.99999999999998579, 0.000000000000000000, 44.00000000000000000 ) ) ;
#472 = CIRCLE ( 'NONE', #375, 1.999999999999996669 ) ;
#473 = EDGE_LOOP ( 'NONE', ( #1182, #990, #1121, #417 ) ) ;
#474 = EDGE_CURVE ( 'NONE', #380, #557, #999, .T. ) ;
#475 = CARTESIAN_POINT ( 'NONE',  ( 0.000000000000000000, 0.000000000000000000, 44.00000000000000000 ) ) ;
#476 = FILL_AREA_STYLE ('',( #153 ) ) ;
#477 = CARTESIAN_POINT ( 'NONE',  ( -90.00000000000001421, 3.000000000000000000, -45.00000000000000000 ) ) ;
#478 = AXIS2_PLACEMENT_3D ( 'NONE', #547, #655, #171 ) ;
#479 = ADVANCED_FACE ( 'NONE', ( #1257 ), #466, .F. ) ;
#480 = DIRECTION ( 'NONE',  ( -1.000000000000000000, 0.000000000000000000, 0.000000000000000000 ) ) ;
#481 = CYLINDRICAL_SURFACE ( 'NONE', #662, 1.000000000000000888 ) ;
#482 = LINE ( 'NONE', #880, #1085 ) ;
#483 = FACE_OUTER_BOUND ( 'NONE', #1012, .T. ) ;
#484 = CARTESIAN_POINT ( 'NONE',  ( 78.14199999999999591, 18.90000066000003187, 4.004999999999967031 ) ) ;
#485 = CARTESIAN_POINT ( 'NONE',  ( 89.99999999999998579, 1.000000000000000000, -45.00000000000000000 ) ) ;
#486 = ORIENTED_EDGE ( 'NONE', *, *, #1137, .T. ) ;
#487 = DIRECTION ( 'NONE',  ( 0.000000000000000000, 0.000000000000000000, 1.000000000000000000 ) ) ;
#488 = ORIENTED_EDGE ( 'NONE', *, *, #738, .F. ) ;
#489 = DIRECTION ( 'NONE',  ( -0.000000000000000000, -1.000000000000000000, -0.000000000000000000 ) ) ;
#490 = ORIENTED_EDGE ( 'NONE', *, *, #639, .T. ) ;
#491 = ORIENTED_EDGE ( 'NONE', *, *, #951, .T. ) ;
#492 = EDGE_CURVE ( 'NONE', #1106, #16, #1056, .T. ) ;
#493 =( BOUNDED_CURVE ( )  B_SPLINE_CURVE ( 3, ( #189, #946, #664, #1064 ),
 .UNSPECIFIED., .F., .T. ) 
 B_SPLINE_CURVE_WITH_KNOTS ( ( 4, 4 ),
 ( 1.570796326794896558, 3.141592653589793116 ),
 .UNSPECIFIED. ) 
 CURVE ( )  GEOMETRIC_REPRESENTATION_ITEM ( )  RATIONAL_B_SPLINE_CURVE ( ( 1.000000000000000000, 0.8047378541243649375, 0.8047378541243649375, 1.000000000000000000 ) ) 
 REPRESENTATION_ITEM ( '' )  );
#494 = DIRECTION ( 'NONE',  ( -0.000000000000000000, -1.000000000000000000, -0.000000000000000000 ) ) ;
#495 = ORIENTED_EDGE ( 'NONE', *, *, #820, .F. ) ;
#496 = DIRECTION ( 'NONE',  ( -0.000000000000000000, 1.000000000000000000, 0.000000000000000000 ) ) ;
#497 = DIRECTION ( 'NONE',  ( 5.551115123125778758E-16, -1.000000000000000000, 2.661133787040694438E-16 ) ) ;
#498 = AXIS2_PLACEMENT_3D ( 'NONE', #959, #49, #843 ) ;
#499 = ORIENTED_EDGE ( 'NONE', *, *, #725, .T. ) ;
#500 = DIRECTION ( 'NONE',  ( 1.000000000000000000, 0.000000000000000000, 0.000000000000000000 ) ) ;
#501 = LINE ( 'NONE', #893, #161 ) ;
#502 = EDGE_CURVE ( 'NONE', #1206, #699, #715, .T. ) ;
#503 = VERTEX_POINT ( 'NONE', #866 ) ;
#504 = CARTESIAN_POINT ( 'NONE',  ( 83.49999999999997158, 5.999999999999998224, 36.49999999999997158 ) ) ;
#505 = CARTESIAN_POINT ( 'NONE',  ( 90.00000000000000000, 1.000000000000000000, 45.00000000000000000 ) ) ;
#506 = ORIENTED_EDGE ( 'NONE', *, *, #667, .F. ) ;
#507 = LINE ( 'NONE', #1128, #269 ) ;
#508 = AXIS2_PLACEMENT_3D ( 'NONE', #553, #1248, #953 ) ;
#509 = VECTOR ( 'NONE', #621, 1000.000000000000000 ) ;
#510 = CIRCLE ( 'NONE', #288, 0.6999999999999853006 ) ;
#511 = CARTESIAN_POINT ( 'NONE',  ( 70.08199999999997942, 3.000000000000000000, 42.23999999999997357 ) ) ;
#512 = VERTEX_POINT ( 'NONE', #579 ) ;
#513 = LINE ( 'NONE', #680, #1126 ) ;
#514 = DIRECTION ( 'NONE',  ( -1.000000000000000000, -0.000000000000000000, -0.000000000000000000 ) ) ;
#515 = EDGE_CURVE ( 'NONE', #699, #1186, #170, .T. ) ;
#516 = ORIENTED_EDGE ( 'NONE', *, *, #997, .T. ) ;
#517 = DIRECTION ( 'NONE',  ( 5.551115123125780730E-16, -1.000000000000000000, 2.661133787040694438E-16 ) ) ;
#518 = CARTESIAN_POINT ( 'NONE',  ( 83.49999999999997158, 28.02167813730651602, 4.499999999999968914 ) ) ;
#519 = ORIENTED_EDGE ( 'NONE', *, *, #1212, .F. ) ;
#520 = PLANE ( 'NONE',  #683 ) ;
#521 = FACE_OUTER_BOUND ( 'NONE', #682, .T. ) ;
#522 = CARTESIAN_POINT ( 'NONE',  ( 14.88199999999997836, 28.02167813730651602, 4.004999999999959925 ) ) ;
#523 = AXIS2_PLACEMENT_3D ( 'NONE', #425, #538, #130 ) ;
#524 = ORIENTED_EDGE ( 'NONE', *, *, #968, .T. ) ;
#525 = CIRCLE ( 'NONE', #1254, 3.225000000000005862 ) ;
#526 = DIRECTION ( 'NONE',  ( 1.000000000000000000, 0.000000000000000000, 0.000000000000000000 ) ) ;
#527 = FACE_BOUND ( 'NONE', #1287, .T. ) ;
#528 = ORIENTED_EDGE ( 'NONE', *, *, #963, .T. ) ;
#529 = DIRECTION ( 'NONE',  ( 5.551115123125780730E-16, -1.000000000000000000, 2.661133787040694438E-16 ) ) ;
#530 = FACE_BOUND ( 'NONE', #357, .T. ) ;
#531 = CARTESIAN_POINT ( 'NONE',  ( 86.49999999999998579, 6.000000000000000000, -41.49999999999999289 ) ) ;
#532 = VERTEX_POINT ( 'NONE', #1160 ) ;
#533 = DIRECTION ( 'NONE',  ( 1.000000000000000000, 0.000000000000000000, 0.000000000000000000 ) ) ;
#534 = EDGE_CURVE ( 'NONE', #196, #971, #166, .T. ) ;
#535 = VECTOR ( 'NONE', #1104, 1000.000000000000000 ) ;
#536 = VECTOR ( 'NONE', #1059, 1000.000000000000000 ) ;
#537 = VERTEX_POINT ( 'NONE', #978 ) ;
#538 = DIRECTION ( 'NONE',  ( -0.000000000000000000, -1.000000000000000000, -0.000000000000000000 ) ) ;
#539 = LINE ( 'NONE', #1236, #9 ) ;
#540 = DIRECTION ( 'NONE',  ( -0.000000000000000000, -1.000000000000000000, -0.000000000000000000 ) ) ;
#541 = CIRCLE ( 'NONE', #333, 3.224999999999998757 ) ;
#542 = CARTESIAN_POINT ( 'NONE',  ( 83.49999999999997158, 18.90000066000003542, 2.499999999999973355 ) ) ;
#543 = ORIENTED_EDGE ( 'NONE', *, *, #617, .T. ) ;
#544 = ORIENTED_EDGE ( 'NONE', *, *, #849, .F. ) ;
#545 = DIRECTION ( 'NONE',  ( -0.000000000000000000, -1.000000000000000000, -0.000000000000000000 ) ) ;
#546 = CARTESIAN_POINT ( 'NONE',  ( 78.14199999999999591, 18.90000066000003187, 1.309999999999975184 ) ) ;
#547 = CARTESIAN_POINT ( 'NONE',  ( 83.49999999999997158, 28.02167813730651602, 38.49999999999996447 ) ) ;
#548 = ORIENTED_EDGE ( 'NONE', *, *, #155, .T. ) ;
#549 = APPLICATION_PROTOCOL_DEFINITION ( 'draft international standard', 'automotive_design', 1998, #127 ) ;
#550 = AXIS2_PLACEMENT_3D ( 'NONE', #1024, #813, #1205 ) ;
#551 = VECTOR ( 'NONE', #1151, 1000.000000000000000 ) ;
#552 = ORIENTED_EDGE ( 'NONE', *, *, #585, .T. ) ;
#553 = CARTESIAN_POINT ( 'NONE',  ( 14.88199999999997836, 5.999999999999998224, 4.004999999999959925 ) ) ;
#554 = CARTESIAN_POINT ( 'NONE',  ( 14.88199999999997836, 28.02167813730651602, 4.004999999999959925 ) ) ;
#555 = DIRECTION ( 'NONE',  ( -1.000000000000000000, 0.000000000000000000, 1.541976423090495387E-16 ) ) ;
#556 = EDGE_CURVE ( 'NONE', #249, #384, #772, .T. ) ;
#557 = VERTEX_POINT ( 'NONE', #280 ) ;
#558 = ORIENTED_EDGE ( 'NONE', *, *, #698, .F. ) ;
#559 = DIRECTION ( 'NONE',  ( 1.000000000000000000, 0.000000000000000000, 0.000000000000000000 ) ) ;
#560 = ADVANCED_FACE ( 'NONE', ( #366 ), #275, .T. ) ;
#561 = DIRECTION ( 'NONE',  ( -0.000000000000000000, -1.000000000000000000, -0.000000000000000000 ) ) ;
#562 = ORIENTED_EDGE ( 'NONE', *, *, #94, .T. ) ;
#563 = AXIS2_PLACEMENT_3D ( 'NONE', #398, #309, #988 ) ;
#564 = DIRECTION ( 'NONE',  ( 5.551115123125780730E-16, -1.000000000000000000, 2.661133787040694438E-16 ) ) ;
#565 = CARTESIAN_POINT ( 'NONE',  ( 83.49999999999997158, 28.02167813730651602, 4.499999999999968914 ) ) ;
#566 = ORIENTED_EDGE ( 'NONE', *, *, #849, .T. ) ;
#567 = EDGE_CURVE ( 'NONE', #778, #46, #172, .T. ) ;
#568 = VECTOR ( 'NONE', #89, 1000.000000000000000 ) ;
#569 = DIRECTION ( 'NONE',  ( -0.000000000000000000, 1.000000000000000000, 0.000000000000000000 ) ) ;
#570 = PRESENTATION_STYLE_ASSIGNMENT (( #576 ) ) ;
#571 = CARTESIAN_POINT ( 'NONE',  ( 78.14199999999999591, 28.02167813730651602, 4.004999999999967031 ) ) ;
#572 = EDGE_LOOP ( 'NONE', ( #1210, #63, #939, #936 ) ) ;
#573 = EDGE_CURVE ( 'NONE', #532, #190, #973, .T. ) ;
#574 = DIRECTION ( 'NONE',  ( 5.551115123125780730E-16, -1.000000000000000000, 2.661133787040694438E-16 ) ) ;
#575 = AXIS2_PLACEMENT_3D ( 'NONE', #956, #53, #1139 ) ;
#576 = SURFACE_STYLE_USAGE ( .BOTH. , #88 ) ;
#577 = CARTESIAN_POINT ( 'NONE',  ( 70.08199999999997942, 5.999999999999998224, 39.01499999999996504 ) ) ;
#578 = AXIS2_PLACEMENT_3D ( 'NONE', #344, #649, #164 ) ;
#579 = CARTESIAN_POINT ( 'NONE',  ( -89.99999999999998579, 3.000000000000000000, 45.00000000000000000 ) ) ;
#580 = DIRECTION ( 'NONE',  ( 1.000000000000000000, 0.000000000000000000, -0.000000000000000000 ) ) ;
#581 = DIRECTION ( 'NONE',  ( 3.083952846180990774E-16, -0.000000000000000000, 1.000000000000000000 ) ) ;
#582 = PLANE ( 'NONE',  #286 ) ;
#583 = ORIENTED_EDGE ( 'NONE', *, *, #211, .T. ) ;
#584 = EDGE_CURVE ( 'NONE', #69, #147, #306, .T. ) ;
#585 = EDGE_CURVE ( 'NONE', #710, #160, #178, .T. ) ;
#586 = ORIENTED_EDGE ( 'NONE', *, *, #439, .F. ) ;
#587 = CARTESIAN_POINT ( 'NONE',  ( 70.08199999999997942, 28.02167813730651602, 39.01499999999996504 ) ) ;
#588 = CIRCLE ( 'NONE', #35, 0.6999999999999870770 ) ;
#589 = CARTESIAN_POINT ( 'NONE',  ( 70.08199999999997942, 3.000000000000000000, 39.01499999999996504 ) ) ;
#590 = DIRECTION ( 'NONE',  ( 0.000000000000000000, 0.000000000000000000, 1.000000000000000000 ) ) ;
#591 = AXIS2_PLACEMENT_3D ( 'NONE', #227, #1014, #500 ) ;
#592 = VECTOR ( 'NONE', #1004, 1000.000000000000000 ) ;
#593 = ADVANCED_FACE ( 'NONE', ( #861, #174 ), #78, .F. ) ;
#594 = VERTEX_POINT ( 'NONE', #788 ) ;
#595 = CARTESIAN_POINT ( 'NONE',  ( -90.00000000000001421, 3.000000000000000000, -45.00000000000000000 ) ) ;
#596 = EDGE_LOOP ( 'NONE', ( #631, #454, #325, #226 ) ) ;
#597 = DIRECTION ( 'NONE',  ( 0.000000000000000000, 0.000000000000000000, -1.000000000000000000 ) ) ;
#598 = CARTESIAN_POINT ( 'NONE',  ( 78.14199999999999591, 28.02167813730651602, 1.309999999999975184 ) ) ;
#599 = EDGE_LOOP ( 'NONE', ( #1138, #740, #95, #20 ) ) ;
#600 = LINE ( 'NONE', #390, #697 ) ;
#601 = ORIENTED_EDGE ( 'NONE', *, *, #1068, .T. ) ;
#602 = CARTESIAN_POINT ( 'NONE',  ( 42.49999999999998579, 18.90000066000001766, 21.49999999999996092 ) ) ;
#603 = AXIS2_PLACEMENT_3D ( 'NONE', #717, #423, #831 ) ;
#604 = FACE_OUTER_BOUND ( 'NONE', #1169, .T. ) ;
#605 = UNCERTAINTY_MEASURE_WITH_UNIT (LENGTH_MEASURE( 1.000000000000000082E-05 ), #1244, 'distance_accuracy_value', 'NONE');
#606 = AXIS2_PLACEMENT_3D ( 'NONE', #773, #555, #961 ) ;
#607 = ORIENTED_EDGE ( 'NONE', *, *, #515, .F. ) ;
#608 = DIRECTION ( 'NONE',  ( 1.000000000000000000, 0.000000000000000000, 0.000000000000000000 ) ) ;
#609 = EDGE_CURVE ( 'NONE', #828, #1025, #600, .T. ) ;
#610 = CARTESIAN_POINT ( 'NONE',  ( 70.08199999999997942, 18.90000066000003898, 39.01499999999996504 ) ) ;
#611 = ORIENTED_EDGE ( 'NONE', *, *, #395, .F. ) ;
#612 = CARTESIAN_POINT ( 'NONE',  ( 70.08199999999997942, 28.02167813730651602, 35.78999999999996362 ) ) ;
#613 = DIRECTION ( 'NONE',  ( -0.000000000000000000, -1.000000000000000000, -0.000000000000000000 ) ) ;
#614 = ORIENTED_EDGE ( 'NONE', *, *, #660, .F. ) ;
#615 = CARTESIAN_POINT ( 'NONE',  ( 83.49999999999997158, 18.90000066000004608, 38.49999999999996447 ) ) ;
#616 = AXIS2_PLACEMENT_3D ( 'NONE', #887, #1282, #10 ) ;
#617 = EDGE_CURVE ( 'NONE', #380, #747, #289, .T. ) ;
#618 = PLANE ( 'NONE',  #550 ) ;
#619 = ORIENTED_EDGE ( 'NONE', *, *, #1071, .F. ) ;
#620 = FACE_OUTER_BOUND ( 'NONE', #273, .T. ) ;
#621 = DIRECTION ( 'NONE',  ( -1.672022627447525486E-16, 0.000000000000000000, -1.000000000000000000 ) ) ;
#622 = ADVANCED_FACE ( 'NONE', ( #483 ), #1179, .T. ) ;
#623 = DIRECTION ( 'NONE',  ( -1.000000000000000000, 0.000000000000000000, 0.000000000000000000 ) ) ;
#624 = ORIENTED_EDGE ( 'NONE', *, *, #439, .T. ) ;
#625 = CARTESIAN_POINT ( 'NONE',  ( 14.88199999999997836, 5.999999999999998224, 0.7799999999999617240 ) ) ;
#626 = PLANE ( 'NONE',  #952 ) ;
#627 = EDGE_LOOP ( 'NONE', ( #726, #885 ) ) ;
#628 = DIRECTION ( 'NONE',  ( 5.551115123125780730E-16, -1.000000000000000000, 2.661133787040694438E-16 ) ) ;
#629 = DIRECTION ( 'NONE',  ( 0.000000000000000000, 0.000000000000000000, -1.000000000000000000 ) ) ;
#630 = LINE ( 'NONE', #451, #668 ) ;
#631 = ORIENTED_EDGE ( 'NONE', *, *, #1019, .T. ) ;
#632 = CARTESIAN_POINT ( 'NONE',  ( 70.08199999999997942, 18.90000066000003898, 35.78999999999996362 ) ) ;
#633 = EDGE_CURVE ( 'NONE', #1167, #767, #472, .T. ) ;
#634 = EDGE_LOOP ( 'NONE', ( #1255, #756, #907, #397 ) ) ;
#635 = LINE ( 'NONE', #40, #364 ) ;
#636 = PLANE ( 'NONE',  #1074 ) ;
#637 = CARTESIAN_POINT ( 'NONE',  ( 86.49999999999998579, 6.000000000000000000, -41.49999999999999289 ) ) ;
#638 = ORIENTED_EDGE ( 'NONE', *, *, #1154, .F. ) ;
#639 = EDGE_CURVE ( 'NONE', #1177, #152, #937, .T. ) ;
#640 = DIRECTION ( 'NONE',  ( 0.000000000000000000, 0.000000000000000000, 1.000000000000000000 ) ) ;
#641 = ORIENTED_EDGE ( 'NONE', *, *, #1124, .T. ) ;
#642 = PLANE ( 'NONE',  #575 ) ;
#643 = CARTESIAN_POINT ( 'NONE',  ( 83.49999999999997158, 28.02167813730651602, 38.49999999999996447 ) ) ;
#644 = CARTESIAN_POINT ( 'NONE',  ( 83.49999999999997158, 18.90000066000003542, 3.799999999999982059 ) ) ;
#645 = ORIENTED_EDGE ( 'NONE', *, *, #1031, .F. ) ;
#646 = FACE_OUTER_BOUND ( 'NONE', #1022, .T. ) ;
#647 = AXIS2_PLACEMENT_3D ( 'NONE', #565, #457, #57 ) ;
#648 = ORIENTED_EDGE ( 'NONE', *, *, #515, .T. ) ;
#649 = DIRECTION ( 'NONE',  ( 0.000000000000000000, -1.000000000000000000, -0.000000000000000000 ) ) ;
#650 = DIRECTION ( 'NONE',  ( 0.000000000000000000, -1.000000000000000000, -0.000000000000000000 ) ) ;
#651 = CARTESIAN_POINT ( 'NONE',  ( -86.50000000000001421, 3.000000000000000000, -41.49999999999999289 ) ) ;
#652 = VERTEX_POINT ( 'NONE', #87 ) ;
#653 = ADVANCED_FACE ( 'NONE', ( #799 ), #1190, .F. ) ;
#654 = LINE ( 'NONE', #776, #447 ) ;
#655 = DIRECTION ( 'NONE',  ( -0.000000000000000000, -1.000000000000000000, -0.000000000000000000 ) ) ;
#656 = ORIENTED_EDGE ( 'NONE', *, *, #1079, .T. ) ;
#657 = CARTESIAN_POINT ( 'NONE',  ( 14.88199999999997836, 28.02167813730651602, 5.429999999999957083 ) ) ;
#658 = CARTESIAN_POINT ( 'NONE',  ( 83.49999999999997158, 5.999999999999998224, 38.49999999999996447 ) ) ;
#659 = PRODUCT_DEFINITION_CONTEXT ( 'detailed design', #274, 'design' ) ;
#660 = EDGE_CURVE ( 'NONE', #747, #403, #124, .T. ) ;
#661 = ORIENTED_EDGE ( 'NONE', *, *, #639, .F. ) ;
#662 = AXIS2_PLACEMENT_3D ( 'NONE', #290, #1040, #851 ) ;
#663 = CARTESIAN_POINT ( 'NONE',  ( 70.08199999999997942, 18.90000066000003898, 39.01499999999996504 ) ) ;
#664 = CARTESIAN_POINT ( 'NONE',  ( 90.00000000000000000, 0.4142135623730948124, 45.00000000000000000 ) ) ;
#665 = DIRECTION ( 'NONE',  ( 5.551115123125780730E-16, -1.000000000000000000, 2.661133787040694438E-16 ) ) ;
#666 = VERTEX_POINT ( 'NONE', #785 ) ;
#667 = EDGE_CURVE ( 'NONE', #4, #420, #402, .T. ) ;
#668 = VECTOR ( 'NONE', #623, 1000.000000000000000 ) ;
#669 = CIRCLE ( 'NONE', #54, 0.6999999999999922951 ) ;
#670 = CARTESIAN_POINT ( 'NONE',  ( 89.58578643762685090, -3.586907429118599214E-17, -44.58578643762690064 ) ) ;
#671 = DIRECTION ( 'NONE',  ( 0.000000000000000000, -1.000000000000000000, -0.000000000000000000 ) ) ;
#672 = CARTESIAN_POINT ( 'NONE',  ( -90.00000000000001421, 3.000000000000000000, -45.00000000000000000 ) ) ;
#673 = AXIS2_PLACEMENT_3D ( 'NONE', #452, #361, #862 ) ;
#674 = APPLICATION_PROTOCOL_DEFINITION ( 'draft international standard', 'automotive_design', 1998, #274 ) ;
#675 = VECTOR ( 'NONE', #248, 1000.000000000000000 ) ;
#676 = LINE ( 'NONE', #1285, #1 ) ;
#677 = EDGE_CURVE ( 'NONE', #160, #107, #1272, .T. ) ;
#678 = CARTESIAN_POINT ( 'NONE',  ( 83.49999999999997158, 28.02167813730651602, 3.799999999999982059 ) ) ;
#679 = ADVANCED_FACE ( 'NONE', ( #197 ), #1275, .F. ) ;
#680 = CARTESIAN_POINT ( 'NONE',  ( -89.00000000000000000, 0.000000000000000000, 2.744718033101081517E-14 ) ) ;
#681 = ORIENTED_EDGE ( 'NONE', *, *, #1124, .F. ) ;
#682 = EDGE_LOOP ( 'NONE', ( #920, #611 ) ) ;
#683 = AXIS2_PLACEMENT_3D ( 'NONE', #322, #1122, #719 ) ;
#684 = ADVANCED_FACE ( 'NONE', ( #192 ), #96, .F. ) ;
#685 = DIRECTION ( 'NONE',  ( 0.000000000000000000, -1.000000000000000000, -0.000000000000000000 ) ) ;
#686 =( BOUNDED_CURVE ( )  B_SPLINE_CURVE ( 3, ( #316, #391, #711, #688 ),
 .UNSPECIFIED., .F., .T. ) 
 B_SPLINE_CURVE_WITH_KNOTS ( ( 4, 4 ),
 ( 3.141592653589793116, 4.712388980384689674 ),
 .UNSPECIFIED. ) 
 CURVE ( )  GEOMETRIC_REPRESENTATION_ITEM ( )  RATIONAL_B_SPLINE_CURVE ( ( 1.000000000000000000, 0.8047378541243649375, 0.8047378541243649375, 1.000000000000000000 ) ) 
 REPRESENTATION_ITEM ( '' )  );
#687 = AXIS2_PLACEMENT_3D ( 'NONE', #323, #834, #1002 ) ;
#688 = CARTESIAN_POINT ( 'NONE',  ( -89.00000000000001421, 0.000000000000000000, -44.00000000000000000 ) ) ;
#689 = PLANE ( 'NONE',  #741 ) ;
#690 = ORIENTED_EDGE ( 'NONE', *, *, #94, .F. ) ;
#691 = DIRECTION ( 'NONE',  ( 0.000000000000000000, 0.000000000000000000, 1.000000000000000000 ) ) ;
#692 = EDGE_LOOP ( 'NONE', ( #714, #362 ) ) ;
#693 = DIRECTION ( 'NONE',  ( -0.000000000000000000, -1.000000000000000000, -0.000000000000000000 ) ) ;
#694 = DIRECTION ( 'NONE',  ( 0.000000000000000000, 0.000000000000000000, 1.000000000000000000 ) ) ;
#695 = VECTOR ( 'NONE', #342, 1000.000000000000000 ) ;
#696 = CIRCLE ( 'NONE', #1159, 3.224999999999998757 ) ;
#697 = VECTOR ( 'NONE', #91, 1000.000000000000000 ) ;
#698 = EDGE_CURVE ( 'NONE', #777, #103, #806, .T. ) ;
#699 = VERTEX_POINT ( 'NONE', #1185 ) ;
#700 = CARTESIAN_POINT ( 'NONE',  ( -90.00000000000001421, 1.000000000000000000, -45.00000000000000000 ) ) ;
#701 = ORIENTED_EDGE ( 'NONE', *, *, #820, .T. ) ;
#702 = DIRECTION ( 'NONE',  ( 0.000000000000000000, -0.000000000000000000, 1.000000000000000000 ) ) ;
#703 = LINE ( 'NONE', #1102, #353 ) ;
#704 = AXIS2_PLACEMENT_3D ( 'NONE', #272, #665, #1253 ) ;
#705 = EDGE_LOOP ( 'NONE', ( #490, #1266, #491, #1199, #800, #100 ) ) ;
#706 = EDGE_CURVE ( 'NONE', #50, #468, #510, .T. ) ;
#707 = CARTESIAN_POINT ( 'NONE',  ( 14.88199999999997836, 18.90000065999999634, 4.004999999999959925 ) ) ;
#708 = EDGE_CURVE ( 'NONE', #1223, #767, #213, .T. ) ;
#709 = CARTESIAN_POINT ( 'NONE',  ( -86.50000000000001421, 6.000000000000000000, -41.49999999999999289 ) ) ;
#710 = VERTEX_POINT ( 'NONE', #595 ) ;
#711 = CARTESIAN_POINT ( 'NONE',  ( -89.58578643762692195, 1.076072228735579641E-16, -44.58578643762690064 ) ) ;
#712 = VECTOR ( 'NONE', #36, 1000.000000000000000 ) ;
#713 = DIRECTION ( 'NONE',  ( 0.000000000000000000, -1.000000000000000000, -0.000000000000000000 ) ) ;
#714 = ORIENTED_EDGE ( 'NONE', *, *, #1194, .F. ) ;
#715 = CIRCLE ( 'NONE', #781, 3.224999999999998757 ) ;
#716 = LINE ( 'NONE', #1110, #869 ) ;
#717 = CARTESIAN_POINT ( 'NONE',  ( 14.88199999999997836, 28.02167813730651602, 4.004999999999959925 ) ) ;
#718 = ORIENTED_EDGE ( 'NONE', *, *, #708, .F. ) ;
#719 = DIRECTION ( 'NONE',  ( 0.000000000000000000, -0.000000000000000000, 1.000000000000000000 ) ) ;
#720 = DIRECTION ( 'NONE',  ( -0.000000000000000000, 1.000000000000000000, 0.000000000000000000 ) ) ;
#721 = LINE ( 'NONE', #1116, #675 ) ;
#722 = VERTEX_POINT ( 'NONE', #992 ) ;
#723 = CARTESIAN_POINT ( 'NONE',  ( -89.99999999999998579, 1.000000000000000000, 45.00000000000000000 ) ) ;
#724 = FACE_OUTER_BOUND ( 'NONE', #12, .T. ) ;
#725 = EDGE_CURVE ( 'NONE', #1149, #46, #111, .T. ) ;
#726 = ORIENTED_EDGE ( 'NONE', *, *, #110, .T. ) ;
#727 = DIRECTION ( 'NONE',  ( 1.000000000000000000, 0.000000000000000000, 0.000000000000000000 ) ) ;
#728 = PRODUCT_DEFINITION_FORMATION_WITH_SPECIFIED_SOURCE ( 'ä»', '', #448, .NOT_KNOWN. ) ;
#729 = LINE ( 'NONE', #131, #11 ) ;
#730 = DIRECTION ( 'NONE',  ( 0.000000000000000000, 0.000000000000000000, -1.000000000000000000 ) ) ;
#731 = ORIENTED_EDGE ( 'NONE', *, *, #584, .T. ) ;
#732 = CARTESIAN_POINT ( 'NONE',  ( 83.49999999999997158, 5.999999999999998224, 2.499999999999973355 ) ) ;
#733 = VECTOR ( 'NONE', #982, 1000.000000000000000 ) ;
#734 = ORIENTED_EDGE ( 'NONE', *, *, #1097, .F. ) ;
#735 = EDGE_LOOP ( 'NONE', ( #376, #223, #996, #544 ) ) ;
#736 = DIRECTION ( 'NONE',  ( 0.000000000000000000, -1.000000000000000000, -0.000000000000000000 ) ) ;
#737 = DIRECTION ( 'NONE',  ( 0.000000000000000000, 0.000000000000000000, -1.000000000000000000 ) ) ;
#738 = EDGE_CURVE ( 'NONE', #652, #1196, #501, .T. ) ;
#739 = FACE_OUTER_BOUND ( 'NONE', #967, .T. ) ;
#740 = ORIENTED_EDGE ( 'NONE', *, *, #1137, .F. ) ;
#741 = AXIS2_PLACEMENT_3D ( 'NONE', #195, #1088, #199 ) ;
#742 = CARTESIAN_POINT ( 'NONE',  ( 83.49999999999997158, 18.90000066000004608, 40.49999999999995737 ) ) ;
#743 = ORIENTED_EDGE ( 'NONE', *, *, #211, .F. ) ;
#744 = DIRECTION ( 'NONE',  ( 0.000000000000000000, 1.000000000000000000, 0.000000000000000000 ) ) ;
#745 = FACE_OUTER_BOUND ( 'NONE', #993, .T. ) ;
#746 = DIRECTION ( 'NONE',  ( 1.000000000000000000, 0.000000000000000000, 0.000000000000000000 ) ) ;
#747 = VERTEX_POINT ( 'NONE', #27 ) ;
#748 = ADVANCED_FACE ( 'NONE', ( #415 ), #618, .F. ) ;
#749 = AXIS2_PLACEMENT_3D ( 'NONE', #253, #737, #450 ) ;
#750 = VECTOR ( 'NONE', #310, 1000.000000000000000 ) ;
#751 = ORIENTED_EDGE ( 'NONE', *, *, #119, .F. ) ;
#752 = DIRECTION ( 'NONE',  ( -0.000000000000000000, -1.000000000000000000, -0.000000000000000000 ) ) ;
#753 = CARTESIAN_POINT ( 'NONE',  ( 70.08199999999997942, 28.02167813730651602, 39.01499999999996504 ) ) ;
#754 = PRESENTATION_LAYER_ASSIGNMENT (  '', '', ( #857 ) ) ;
#755 = FACE_OUTER_BOUND ( 'NONE', #972, .T. ) ;
#756 = ORIENTED_EDGE ( 'NONE', *, *, #708, .T. ) ;
#757 = CARTESIAN_POINT ( 'NONE',  ( 14.88199999999997836, 5.999999999999998224, 4.004999999999959925 ) ) ;
#758 = ADVANCED_FACE ( 'NONE', ( #235 ), #320, .F. ) ;
#759 = ORIENTED_EDGE ( 'NONE', *, *, #1184, .F. ) ;
#760 = VERTEX_POINT ( 'NONE', #511 ) ;
#761 = PLANE ( 'NONE',  #109 ) ;
#762 = DIRECTION ( 'NONE',  ( 0.000000000000000000, 0.000000000000000000, 1.000000000000000000 ) ) ;
#763 = CIRCLE ( 'NONE', #918, 1.424999999999995826 ) ;
#764 = EDGE_LOOP ( 'NONE', ( #1003, #1145, #428, #798 ) ) ;
#765 = CARTESIAN_POINT ( 'NONE',  ( 90.00000000000000000, 0.4142135623730948124, -45.00000000000000000 ) ) ;
#766 = CARTESIAN_POINT ( 'NONE',  ( 70.08199999999997942, 28.02167813730651602, 37.58999999999996078 ) ) ;
#767 = VERTEX_POINT ( 'NONE', #432 ) ;
#768 = VECTOR ( 'NONE', #234, 1000.000000000000000 ) ;
#769 = CIRCLE ( 'NONE', #371, 0.8949999999999982414 ) ;
#770 = AXIS2_PLACEMENT_3D ( 'NONE', #1026, #628, #1114 ) ;
#771 = ADVANCED_FACE ( 'NONE', ( #527, #1015 ), #626, .F. ) ;
#772 = LINE ( 'NONE', #657, #221 ) ;
#773 = CARTESIAN_POINT ( 'NONE',  ( 89.99999999999998579, 3.000000000000000000, -45.00000000000000000 ) ) ;
#774 = EDGE_CURVE ( 'NONE', #207, #1142, #228, .T. ) ;
#775 = VERTEX_POINT ( 'NONE', #128 ) ;
#776 = CARTESIAN_POINT ( 'NONE',  ( 83.49999999999997158, 28.02167813730651602, 39.19999999999995310 ) ) ;
#777 = VERTEX_POINT ( 'NONE', #1120 ) ;
#778 = VERTEX_POINT ( 'NONE', #822 ) ;
#779 = VECTOR ( 'NONE', #1226, 1000.000000000000000 ) ;
#780 = AXIS2_PLACEMENT_3D ( 'NONE', #909, #120, #1221 ) ;
#781 = AXIS2_PLACEMENT_3D ( 'NONE', #1165, #1172, #456 ) ;
#782 = DIRECTION ( 'NONE',  ( 0.000000000000000000, 0.000000000000000000, -1.000000000000000000 ) ) ;
#783 = EDGE_LOOP ( 'NONE', ( #985, #256, #359, #321 ) ) ;
#784 = EDGE_CURVE ( 'NONE', #1025, #775, #381, .T. ) ;
#785 = CARTESIAN_POINT ( 'NONE',  ( 83.49999999999997158, 5.999999999999998224, 40.49999999999995737 ) ) ;
#786 = DIRECTION ( 'NONE',  ( 0.000000000000000000, 1.000000000000000000, 0.000000000000000000 ) ) ;
#787 = ADVANCED_FACE ( 'NONE', ( #19 ), #1005, .T. ) ;
#788 = CARTESIAN_POINT ( 'NONE',  ( 70.08199999999997942, 5.999999999999998224, 35.78999999999996362 ) ) ;
#789 = DIRECTION ( 'NONE',  ( 1.000000000000000000, 5.551115123125778758E-16, 1.224646799147354440E-16 ) ) ;
#790 = CARTESIAN_POINT ( 'NONE',  ( 86.49999999999998579, 3.000000000000000000, -41.49999999999999289 ) ) ;
#791 = VECTOR ( 'NONE', #889, 1000.000000000000000 ) ;
#792 = ORIENTED_EDGE ( 'NONE', *, *, #1280, .T. ) ;
#793 = CARTESIAN_POINT ( 'NONE',  ( 78.14199999999999591, 28.02167813730651602, 4.899999999999964828 ) ) ;
#794 = ADVANCED_FACE ( 'NONE', ( #724 ), #158, .F. ) ;
#795 = ORIENTED_EDGE ( 'NONE', *, *, #997, .F. ) ;
#796 = DIRECTION ( 'NONE',  ( -0.000000000000000000, -1.000000000000000000, -0.000000000000000000 ) ) ;
#797 = DIRECTION ( 'NONE',  ( 1.541976423090495387E-16, -0.000000000000000000, 1.000000000000000000 ) ) ;
#798 = ORIENTED_EDGE ( 'NONE', *, *, #784, .F. ) ;
#799 = FACE_OUTER_BOUND ( 'NONE', #929, .T. ) ;
#800 = ORIENTED_EDGE ( 'NONE', *, *, #90, .F. ) ;
#801 = CARTESIAN_POINT ( 'NONE',  ( -86.50000000000001421, 3.000000000000000000, -41.49999999999999289 ) ) ;
#802 = CARTESIAN_POINT ( 'NONE',  ( 83.49999999999997158, 28.02167813730651602, 4.499999999999968914 ) ) ;
#803 = EDGE_CURVE ( 'NONE', #1142, #594, #1229, .T. ) ;
#804 = ORIENTED_EDGE ( 'NONE', *, *, #1204, .F. ) ;
#805 = CARTESIAN_POINT ( 'NONE',  ( -86.49999999999998579, 3.000000000000000000, 41.49999999999999289 ) ) ;
#806 = LINE ( 'NONE', #793, #1076 ) ;
#807 = ORIENTED_EDGE ( 'NONE', *, *, #240, .F. ) ;
#808 = CYLINDRICAL_SURFACE ( 'NONE', #295, 3.225000000000005862 ) ;
#809 = DIRECTION ( 'NONE',  ( -1.541976423090495387E-16, -0.000000000000000000, -1.000000000000000000 ) ) ;
#810 = VECTOR ( 'NONE', #1152, 1000.000000000000000 ) ;
#811 = EDGE_LOOP ( 'NONE', ( #552, #82, #1127, #759 ) ) ;
#812 = DIRECTION ( 'NONE',  ( 1.000000000000000000, 0.000000000000000000, 0.000000000000000000 ) ) ;
#813 = DIRECTION ( 'NONE',  ( 0.000000000000000000, 0.000000000000000000, -1.000000000000000000 ) ) ;
#814 = ORIENTED_EDGE ( 'NONE', *, *, #774, .F. ) ;
#815 = LINE ( 'NONE', #1192, #1011 ) ;
#816 = LINE ( 'NONE', #598, #1241 ) ;
#817 = FACE_OUTER_BOUND ( 'NONE', #901, .T. ) ;
#818 = EDGE_LOOP ( 'NONE', ( #895, #486, #7, #743 ) ) ;
#819 = CARTESIAN_POINT ( 'NONE',  ( 14.88199999999997836, 18.90000065999999634, 2.579999999999961879 ) ) ;
#820 = EDGE_CURVE ( 'NONE', #832, #503, #630, .T. ) ;
#821 = ADVANCED_FACE ( 'NONE', ( #745 ), #1044, .T. ) ;
#822 = CARTESIAN_POINT ( 'NONE',  ( 88.99999999999998579, 0.000000000000000000, -44.00000000000000000 ) ) ;
#823 = ORIENTED_EDGE ( 'NONE', *, *, #465, .F. ) ;
#824 = FACE_OUTER_BOUND ( 'NONE', #783, .T. ) ;
#825 = DIRECTION ( 'NONE',  ( 0.000000000000000000, 0.000000000000000000, 1.000000000000000000 ) ) ;
#826 = CARTESIAN_POINT ( 'NONE',  ( -89.99999999999998579, 1.000000000000000000, 44.00000000000000000 ) ) ;
#827 = CIRCLE ( 'NONE', #145, 2.000000000000001776 ) ;
#828 = VERTEX_POINT ( 'NONE', #427 ) ;
#829 = CARTESIAN_POINT ( 'NONE',  ( 72.13757777765761148, 5.999999999999998224, 41.49999999999999289 ) ) ;
#830 = ADVANCED_FACE ( 'NONE', ( #1232 ), #132, .T. ) ;
#831 = DIRECTION ( 'NONE',  ( 0.000000000000000000, 0.000000000000000000, -1.000000000000000000 ) ) ;
#832 = VERTEX_POINT ( 'NONE', #637 ) ;
#833 = DIRECTION ( 'NONE',  ( 0.000000000000000000, 0.000000000000000000, 1.000000000000000000 ) ) ;
#834 = DIRECTION ( 'NONE',  ( 0.000000000000000000, -1.000000000000000000, -0.000000000000000000 ) ) ;
#835 = DIRECTION ( 'NONE',  ( 0.000000000000000000, 0.000000000000000000, 1.000000000000000000 ) ) ;
#836 = VERTEX_POINT ( 'NONE', #546 ) ;
#837 = DIRECTION ( 'NONE',  ( 0.000000000000000000, -1.000000000000000000, -0.000000000000000000 ) ) ;
#838 = AXIS2_PLACEMENT_3D ( 'NONE', #643, #950, #730 ) ;
#839 = ORIENTED_EDGE ( 'NONE', *, *, #841, .T. ) ;
#840 = CARTESIAN_POINT ( 'NONE',  ( 14.88199999999997836, 18.90000065999999634, 5.429999999999957083 ) ) ;
#841 = EDGE_CURVE ( 'NONE', #971, #196, #106, .T. ) ;
#842 = DIRECTION ( 'NONE',  ( 0.000000000000000000, 0.000000000000000000, -1.000000000000000000 ) ) ;
#843 = DIRECTION ( 'NONE',  ( -1.000000000000000000, 0.000000000000000000, 0.000000000000000000 ) ) ;
#844 = ORIENTED_EDGE ( 'NONE', *, *, #1184, .T. ) ;
#845 = AXIS2_PLACEMENT_3D ( 'NONE', #874, #782, #970 ) ;
#846 = ORIENTED_EDGE ( 'NONE', *, *, #1250, .F. ) ;
#847 = FACE_OUTER_BOUND ( 'NONE', #596, .T. ) ;
#848 = CARTESIAN_POINT ( 'NONE',  ( 83.49999999999997158, 18.90000066000004608, 38.49999999999996447 ) ) ;
#849 = EDGE_CURVE ( 'NONE', #46, #160, #262, .T. ) ;
#850 = CARTESIAN_POINT ( 'NONE',  ( 0.000000000000000000, 0.000000000000000000, -44.00000000000000000 ) ) ;
#851 = DIRECTION ( 'NONE',  ( 1.000000000000000000, 0.000000000000000000, 0.000000000000000000 ) ) ;
#852 = ORIENTED_EDGE ( 'NONE', *, *, #860, .T. ) ;
#853 = AXIS2_PLACEMENT_3D ( 'NONE', #826, #332, #1125 ) ;
#854 = AXIS2_PLACEMENT_3D ( 'NONE', #587, #387, #1099 ) ;
#855 = ORIENTED_EDGE ( 'NONE', *, *, #474, .F. ) ;
#856 = DIRECTION ( 'NONE',  ( -0.000000000000000000, -1.000000000000000000, -0.000000000000000000 ) ) ;
#857 = STYLED_ITEM ( 'NONE', ( #570 ), #1286 ) ;
#858 = CARTESIAN_POINT ( 'NONE',  ( 83.49999999999997158, 28.02167813730651602, 40.49999999999995737 ) ) ;
#859 = ORIENTED_EDGE ( 'NONE', *, *, #283, .T. ) ;
#860 = EDGE_CURVE ( 'NONE', #971, #468, #436, .T. ) ;
#861 = FACE_BOUND ( 'NONE', #134, .T. ) ;
#862 = DIRECTION ( 'NONE',  ( 0.000000000000000000, 0.000000000000000000, 1.000000000000000000 ) ) ;
#863 = AXIS2_PLACEMENT_3D ( 'NONE', #484, #994, #1276 ) ;
#864 = EDGE_LOOP ( 'NONE', ( #229, #168, #440, #43, #1227, #701, #1235 ) ) ;
#865 = ADVANCED_FACE ( 'NONE', ( #817 ), #1209, .T. ) ;
#866 = CARTESIAN_POINT ( 'NONE',  ( -86.50000000000001421, 6.000000000000000000, -41.49999999999999289 ) ) ;
#867 = CARTESIAN_POINT ( 'NONE',  ( 78.14199999999999591, 18.90000066000003187, 4.004999999999967031 ) ) ;
#868 = ORIENTED_EDGE ( 'NONE', *, *, #1068, .F. ) ;
#869 = VECTOR ( 'NONE', #533, 1000.000000000000000 ) ;
#870 = ADVANCED_FACE ( 'NONE', ( #739 ), #1147, .F. ) ;
#871 = CARTESIAN_POINT ( 'NONE',  ( 86.50000000000000000, 6.000000000000000000, 41.49999999999999289 ) ) ;
#872 = CARTESIAN_POINT ( 'NONE',  ( 89.00000000000000000, 0.000000000000000000, -1.372359016550540759E-14 ) ) ;
#873 = ORIENTED_EDGE ( 'NONE', *, *, #1212, .T. ) ;
#874 = CARTESIAN_POINT ( 'NONE',  ( -89.99999999999998579, 3.000000000000000000, 45.00000000000000000 ) ) ;
#875 =( NAMED_UNIT ( * ) SI_UNIT ( $, .STERADIAN. ) SOLID_ANGLE_UNIT ( ) );
#876 = ORIENTED_EDGE ( 'NONE', *, *, #738, .T. ) ;
#877 = EDGE_CURVE ( 'NONE', #384, #406, #186, .T. ) ;
#878 = AXIS2_PLACEMENT_3D ( 'NONE', #382, #372, #559 ) ;
#879 = DIRECTION ( 'NONE',  ( 5.551115123125778758E-16, -1.000000000000000000, 2.661133787040694438E-16 ) ) ;
#880 = CARTESIAN_POINT ( 'NONE',  ( 72.13757777765761148, 28.02167813730651602, 41.49999999999999289 ) ) ;
#881 = EDGE_CURVE ( 'NONE', #69, #437, #721, .T. ) ;
#882 = DIRECTION ( 'NONE',  ( 1.000000000000000000, 1.075797504481738800E-15, 0.000000000000000000 ) ) ;
#883 = CARTESIAN_POINT ( 'NONE',  ( 78.14199999999999591, 5.999999999999998224, 6.699999999999958433 ) ) ;
#884 = ORIENTED_EDGE ( 'NONE', *, *, #1049, .T. ) ;
#885 = ORIENTED_EDGE ( 'NONE', *, *, #784, .T. ) ;
#886 = EDGE_CURVE ( 'NONE', #512, #107, #232, .T. ) ;
#887 = CARTESIAN_POINT ( 'NONE',  ( -90.00000000000001421, 3.000000000000000000, -45.00000000000000000 ) ) ;
#888 = ORIENTED_EDGE ( 'NONE', *, *, #1111, .F. ) ;
#889 = DIRECTION ( 'NONE',  ( -0.000000000000000000, -1.000000000000000000, -0.000000000000000000 ) ) ;
#890 = CYLINDRICAL_SURFACE ( 'NONE', #244, 2.694999999999991847 ) ;
#891 = EDGE_LOOP ( 'NONE', ( #910, #1153, #1007, #464 ) ) ;
#892 = ADVANCED_FACE ( 'NONE', ( #31 ), #151, .T. ) ;
#893 = CARTESIAN_POINT ( 'NONE',  ( 78.14199999999999591, 28.02167813730651602, 3.109999999999968789 ) ) ;
#894 = CIRCLE ( 'NONE', #687, 0.8949999999999982414 ) ;
#895 = ORIENTED_EDGE ( 'NONE', *, *, #573, .T. ) ;
#896 = LINE ( 'NONE', #612, #394 ) ;
#897 = CARTESIAN_POINT ( 'NONE',  ( -86.49999999999998579, 6.000000000000000000, 41.49999999999999289 ) ) ;
#898 = ORIENTED_EDGE ( 'NONE', *, *, #1154, .T. ) ;
#899 = CARTESIAN_POINT ( 'NONE',  ( 70.08199999999997942, 28.02167813730651602, 42.23999999999997357 ) ) ;
#900 = DIRECTION ( 'NONE',  ( -0.000000000000000000, -1.000000000000000000, -0.000000000000000000 ) ) ;
#901 = EDGE_LOOP ( 'NONE', ( #983, #601, #528, #163, #368, #301 ) ) ;
#902 = CARTESIAN_POINT ( 'NONE',  ( -89.58578643762685090, 3.586907429118599214E-17, 44.58578643762690064 ) ) ;
#903 = CYLINDRICAL_SURFACE ( 'NONE', #917, 0.8949999999999982414 ) ;
#904 = AXIS2_PLACEMENT_3D ( 'NONE', #351, #942, #1051 ) ;
#905 = AXIS2_PLACEMENT_3D ( 'NONE', #753, #1217, #324 ) ;
#906 = AXIS2_PLACEMENT_3D ( 'NONE', #931, #497, #41 ) ;
#907 = ORIENTED_EDGE ( 'NONE', *, *, #633, .F. ) ;
#908 = DIRECTION ( 'NONE',  ( 5.551115123125780730E-16, -1.000000000000000000, 2.661133787040694438E-16 ) ) ;
#909 = CARTESIAN_POINT ( 'NONE',  ( 78.14199999999999591, 5.999999999999998224, 4.004999999999967031 ) ) ;
#910 = ORIENTED_EDGE ( 'NONE', *, *, #984, .T. ) ;
#911 = CARTESIAN_POINT ( 'NONE',  ( -88.99999999999998579, 0.000000000000000000, 44.00000000000000000 ) ) ;
#912 = LINE ( 'NONE', #412, #750 ) ;
#913 = EDGE_CURVE ( 'NONE', #832, #4, #140, .T. ) ;
#914 = ORIENTED_EDGE ( 'NONE', *, *, #492, .T. ) ;
#915 = CARTESIAN_POINT ( 'NONE',  ( 70.08199999999997942, 3.000000000000000000, 39.01499999999996504 ) ) ;
#916 = ADVANCED_FACE ( 'NONE', ( #42, #943, #48, #442, #345 ), #582, .T. ) ;
#917 = AXIS2_PLACEMENT_3D ( 'NONE', #426, #613, #1193 ) ;
#918 = AXIS2_PLACEMENT_3D ( 'NONE', #1087, #104, #148 ) ;
#919 = DIRECTION ( 'NONE',  ( 0.000000000000000000, 0.000000000000000000, -1.000000000000000000 ) ) ;
#920 = ORIENTED_EDGE ( 'NONE', *, *, #1019, .F. ) ;
#921 = FACE_OUTER_BOUND ( 'NONE', #1283, .T. ) ;
#922 = CARTESIAN_POINT ( 'NONE',  ( 86.50000000000000000, 3.000000000000000000, 41.49999999999999289 ) ) ;
#923 = CARTESIAN_POINT ( 'NONE',  ( -89.99999999999998579, 3.000000000000000000, 45.00000000000000000 ) ) ;
#924 = AXIS2_PLACEMENT_3D ( 'NONE', #1216, #6, #209 ) ;
#925 = EDGE_LOOP ( 'NONE', ( #410, #445 ) ) ;
#926 = EDGE_CURVE ( 'NONE', #1230, #406, #815, .T. ) ;
#927 = DIRECTION ( 'NONE',  ( 5.551115123125780730E-16, -1.000000000000000000, 2.661133787040694438E-16 ) ) ;
#928 = CARTESIAN_POINT ( 'NONE',  ( -86.49999999999998579, 6.000000000000000000, 41.49999999999999289 ) ) ;
#929 = EDGE_LOOP ( 'NONE', ( #516, #245, #24, #955 ) ) ;
#930 = DIRECTION ( 'NONE',  ( 1.000000000000000000, 1.075797504481741167E-15, 0.000000000000000000 ) ) ;
#931 = CARTESIAN_POINT ( 'NONE',  ( 42.49999999999998579, 18.90000066000001766, 21.49999999999996092 ) ) ;
#932 = DIRECTION ( 'NONE',  ( 5.551115123125780730E-16, -1.000000000000000000, 2.661133787040694438E-16 ) ) ;
#933 = CIRCLE ( 'NONE', #370, 2.000000000000001776 ) ;
#934 = VECTOR ( 'NONE', #143, 1000.000000000000000 ) ;
#935 = CIRCLE ( 'NONE', #770, 3.225000000000005862 ) ;
#936 = ORIENTED_EDGE ( 'NONE', *, *, #1041, .F. ) ;
#937 = CIRCLE ( 'NONE', #1093, 3.225000000000005862 ) ;
#938 = CARTESIAN_POINT ( 'NONE',  ( -86.50000000000001421, 6.000000000000000000, -41.49999999999999289 ) ) ;
#939 = ORIENTED_EDGE ( 'NONE', *, *, #573, .F. ) ;
#940 = ADVANCED_FACE ( 'NONE', ( #1095 ), #418, .T. ) ;
#941 = ORIENTED_EDGE ( 'NONE', *, *, #841, .F. ) ;
#942 = DIRECTION ( 'NONE',  ( -0.000000000000000000, -1.000000000000000000, -0.000000000000000000 ) ) ;
#943 = FACE_BOUND ( 'NONE', #627, .T. ) ;
#944 = CYLINDRICAL_SURFACE ( 'NONE', #647, 0.6999999999999870770 ) ;
#945 = ORIENTED_EDGE ( 'NONE', *, *, #585, .F. ) ;
#946 = CARTESIAN_POINT ( 'NONE',  ( 89.58578643762690774, -3.586907429118599214E-17, 44.58578643762690064 ) ) ;
#947 = ADVANCED_FACE ( 'NONE', ( #122, #1101 ), #1207, .F. ) ;
#948 = ORIENTED_EDGE ( 'NONE', *, *, #304, .F. ) ;
#949 = FACE_OUTER_BOUND ( 'NONE', #308, .T. ) ;
#950 = DIRECTION ( 'NONE',  ( -0.000000000000000000, -1.000000000000000000, -0.000000000000000000 ) ) ;
#951 = EDGE_CURVE ( 'NONE', #760, #179, #68, .T. ) ;
#952 = AXIS2_PLACEMENT_3D ( 'NONE', #1213, #1112, #136 ) ;
#953 = DIRECTION ( 'NONE',  ( 0.000000000000000000, 0.000000000000000000, 1.000000000000000000 ) ) ;
#954 = VECTOR ( 'NONE', #462, 1000.000000000000000 ) ;
#955 = ORIENTED_EDGE ( 'NONE', *, *, #1250, .T. ) ;
#956 = CARTESIAN_POINT ( 'NONE',  ( 42.49999999999998579, 18.90000066000001766, 21.49999999999996092 ) ) ;
#957 = PRODUCT_RELATED_PRODUCT_CATEGORY ( 'part', '', ( #448 ) ) ;
#958 = DIRECTION ( 'NONE',  ( -0.000000000000000000, -1.000000000000000000, -0.000000000000000000 ) ) ;
#959 = CARTESIAN_POINT ( 'NONE',  ( 88.99999999999998579, 1.000000000000000000, -45.00000000000000000 ) ) ;
#960 = ORIENTED_EDGE ( 'NONE', *, *, #913, .F. ) ;
#961 = DIRECTION ( 'NONE',  ( 1.541976423090495387E-16, 0.000000000000000000, 1.000000000000000000 ) ) ;
#962 = EDGE_LOOP ( 'NONE', ( #690, #1054 ) ) ;
#963 = EDGE_CURVE ( 'NONE', #1177, #594, #896, .T. ) ;
#964 = AXIS2_PLACEMENT_3D ( 'NONE', #589, #1180, #215 ) ;
#965 = DIRECTION ( 'NONE',  ( 0.000000000000000000, 0.000000000000000000, -1.000000000000000000 ) ) ;
#966 = DIRECTION ( 'NONE',  ( 5.551115123125780730E-16, -1.000000000000000000, 2.661133787040694438E-16 ) ) ;
#967 = EDGE_LOOP ( 'NONE', ( #1279, #846, #495, #58 ) ) ;
#968 = EDGE_CURVE ( 'NONE', #557, #403, #411, .T. ) ;
#969 = AXIS2_PLACEMENT_3D ( 'NONE', #477, #1270, #580 ) ;
#970 = DIRECTION ( 'NONE',  ( -1.000000000000000000, 0.000000000000000000, -0.000000000000000000 ) ) ;
#971 = VERTEX_POINT ( 'NONE', #208 ) ;
#972 = EDGE_LOOP ( 'NONE', ( #1038, #1034, #1058, #607 ) ) ;
#973 = LINE ( 'NONE', #1075, #954 ) ;
#974 = DIRECTION ( 'NONE',  ( 0.000000000000000000, 0.000000000000000000, 1.000000000000000000 ) ) ;
#975 = CARTESIAN_POINT ( 'NONE',  ( 83.49999999999997158, 5.999999999999998224, 38.49999999999996447 ) ) ;
#976 = AXIS2_PLACEMENT_3D ( 'NONE', #1141, #277, #1162 ) ;
#977 = EDGE_CURVE ( 'NONE', #16, #722, #513, .T. ) ;
#978 = CARTESIAN_POINT ( 'NONE',  ( -86.49999999999998579, 3.000000000000000000, 41.49999999999999289 ) ) ;
#979 = ORIENTED_EDGE ( 'NONE', *, *, #677, .F. ) ;
#980 = VECTOR ( 'NONE', #514, 1000.000000000000000 ) ;
#981 = DIRECTION ( 'NONE',  ( -0.000000000000000000, -1.000000000000000000, -0.000000000000000000 ) ) ;
#982 = DIRECTION ( 'NONE',  ( 3.344045254895050973E-16, 0.000000000000000000, 1.000000000000000000 ) ) ;
#983 = ORIENTED_EDGE ( 'NONE', *, *, #1134, .F. ) ;
#984 = EDGE_CURVE ( 'NONE', #107, #16, #18, .T. ) ;
#985 = ORIENTED_EDGE ( 'NONE', *, *, #584, .F. ) ;
#986 = AXIS2_PLACEMENT_3D ( 'NONE', #707, #517, #526 ) ;
#987 = CARTESIAN_POINT ( 'NONE',  ( 83.49999999999997158, 5.999999999999998224, 4.499999999999968914 ) ) ;
#988 = DIRECTION ( 'NONE',  ( 0.000000000000000000, 0.000000000000000000, 1.000000000000000000 ) ) ;
#989 = FACE_OUTER_BOUND ( 'NONE', #1246, .T. ) ;
#990 = ORIENTED_EDGE ( 'NONE', *, *, #465, .T. ) ;
#991 = EDGE_CURVE ( 'NONE', #1142, #1249, #13, .T. ) ;
#992 = CARTESIAN_POINT ( 'NONE',  ( -89.00000000000001421, 0.000000000000000000, -44.00000000000000000 ) ) ;
#993 = EDGE_LOOP ( 'NONE', ( #74, #259, #1000, #348 ) ) ;
#994 = DIRECTION ( 'NONE',  ( 5.551115123125780730E-16, -1.000000000000000000, 2.661133787040694438E-16 ) ) ;
#995 = LINE ( 'NONE', #922, #509 ) ;
#996 = ORIENTED_EDGE ( 'NONE', *, *, #1021, .F. ) ;
#997 = EDGE_CURVE ( 'NONE', #420, #537, #1008, .T. ) ;
#998 = DIRECTION ( 'NONE',  ( 0.000000000000000000, 0.000000000000000000, 1.000000000000000000 ) ) ;
#999 = CIRCLE ( 'NONE', #385, 0.6999999999999922951 ) ;
#1000 = ORIENTED_EDGE ( 'NONE', *, *, #25, .F. ) ;
#1001 = CARTESIAN_POINT ( 'NONE',  ( 0.000000000000000000, 0.000000000000000000, 0.000000000000000000 ) ) ;
#1002 = DIRECTION ( 'NONE',  ( 0.000000000000000000, 0.000000000000000000, 1.000000000000000000 ) ) ;
#1003 = ORIENTED_EDGE ( 'NONE', *, *, #609, .F. ) ;
#1004 = DIRECTION ( 'NONE',  ( -0.000000000000000000, -1.000000000000000000, -0.000000000000000000 ) ) ;
#1005 = CYLINDRICAL_SURFACE ( 'NONE', #219, 1.999999999999996225 ) ;
#1006 = ADVANCED_FACE ( 'NONE', ( #21 ), #194, .F. ) ;
#1007 = ORIENTED_EDGE ( 'NONE', *, *, #1274, .T. ) ;
#1008 = LINE ( 'NONE', #801, #733 ) ;
#1009 = CARTESIAN_POINT ( 'NONE',  ( 78.14199999999999591, 5.999999999999998224, 4.004999999999967031 ) ) ;
#1010 = ADVANCED_FACE ( 'NONE', ( #224 ), #808, .T. ) ;
#1011 = VECTOR ( 'NONE', #693, 1000.000000000000000 ) ;
#1012 = EDGE_LOOP ( 'NONE', ( #1066, #336, #548, #948 ) ) ;
#1013 = VECTOR ( 'NONE', #206, 1000.000000000000000 ) ;
#1014 = DIRECTION ( 'NONE',  ( 5.551115123125780730E-16, -1.000000000000000000, 2.661133787040694438E-16 ) ) ;
#1015 = FACE_OUTER_BOUND ( 'NONE', #379, .T. ) ;
#1016 = VERTEX_POINT ( 'NONE', #504 ) ;
#1017 = DIRECTION ( 'NONE',  ( 5.551115123125780730E-16, -1.000000000000000000, 2.661133787040694438E-16 ) ) ;
#1018 = DIRECTION ( 'NONE',  ( 0.000000000000000000, -0.000000000000000000, 1.000000000000000000 ) ) ;
#1019 = EDGE_CURVE ( 'NONE', #836, #828, #193, .T. ) ;
#1020 = DIRECTION ( 'NONE',  ( 0.000000000000000000, 0.000000000000000000, 1.000000000000000000 ) ) ;
#1021 = EDGE_CURVE ( 'NONE', #160, #722, #686, .T. ) ;
#1022 = EDGE_LOOP ( 'NONE', ( #334, #1098, #1189, #979 ) ) ;
#1023 = CARTESIAN_POINT ( 'NONE',  ( 68.02642222234234737, 3.000000000000000000, 41.49999999999999289 ) ) ;
#1024 = CARTESIAN_POINT ( 'NONE',  ( -86.49999999999998579, 6.000000000000000000, 41.49999999999999289 ) ) ;
#1025 = VERTEX_POINT ( 'NONE', #883 ) ;
#1026 = CARTESIAN_POINT ( 'NONE',  ( 70.08199999999997942, 18.90000066000003898, 39.01499999999996504 ) ) ;
#1027 = DIRECTION ( 'NONE',  ( -0.000000000000000000, 1.000000000000000000, 0.000000000000000000 ) ) ;
#1028 = DIRECTION ( 'NONE',  ( -0.000000000000000000, -1.000000000000000000, -0.000000000000000000 ) ) ;
#1029 = AXIS2_PLACEMENT_3D ( 'NONE', #975, #1181, #590 ) ;
#1030 = ORIENTED_EDGE ( 'NONE', *, *, #349, .T. ) ;
#1031 = EDGE_CURVE ( 'NONE', #147, #69, #763, .T. ) ;
#1032 = DIRECTION ( 'NONE',  ( 0.000000000000000000, 1.000000000000000000, 0.000000000000000000 ) ) ;
#1033 = ORIENTED_EDGE ( 'NONE', *, *, #70, .F. ) ;
#1034 = ORIENTED_EDGE ( 'NONE', *, *, #258, .T. ) ;
#1035 = CARTESIAN_POINT ( 'NONE',  ( 83.49999999999997158, 18.90000066000003542, 4.499999999999968914 ) ) ;
#1036 = FACE_OUTER_BOUND ( 'NONE', #925, .T. ) ;
#1037 = DIRECTION ( 'NONE',  ( 1.000000000000000000, 0.000000000000000000, -0.000000000000000000 ) ) ;
#1038 = ORIENTED_EDGE ( 'NONE', *, *, #1071, .T. ) ;
#1039 = AXIS2_PLACEMENT_3D ( 'NONE', #470, #879, #1105 ) ;
#1040 = DIRECTION ( 'NONE',  ( 3.083952846180990774E-16, -0.000000000000000000, 1.000000000000000000 ) ) ;
#1041 = EDGE_CURVE ( 'NONE', #512, #532, #635, .T. ) ;
#1042 = ORIENTED_EDGE ( 'NONE', *, *, #556, .T. ) ;
#1043 = CYLINDRICAL_SURFACE ( 'NONE', #904, 2.694999999999991847 ) ;
#1044 = CYLINDRICAL_SURFACE ( 'NONE', #838, 1.999999999999994893 ) ;
#1045 = CYLINDRICAL_SURFACE ( 'NONE', #976, 3.224999999999998312 ) ;
#1046 = ORIENTED_EDGE ( 'NONE', *, *, #556, .F. ) ;
#1047 = VECTOR ( 'NONE', #1065, 1000.000000000000000 ) ;
#1048 = ADVANCED_FACE ( 'NONE', ( #824 ), #29, .F. ) ;
#1049 = EDGE_CURVE ( 'NONE', #1223, #315, #1083, .T. ) ;
#1050 = ORIENTED_EDGE ( 'NONE', *, *, #23, .T. ) ;
#1051 = DIRECTION ( 'NONE',  ( 0.000000000000000000, 0.000000000000000000, -1.000000000000000000 ) ) ;
#1052 = CARTESIAN_POINT ( 'NONE',  ( 83.49999999999997158, 28.02167813730651602, 37.79999999999998295 ) ) ;
#1053 = FACE_OUTER_BOUND ( 'NONE', #599, .T. ) ;
#1054 = ORIENTED_EDGE ( 'NONE', *, *, #1263, .F. ) ;
#1055 = ADVANCED_FACE ( 'NONE', ( #620 ), #520, .T. ) ;
#1056 = LINE ( 'NONE', #475, #1107 ) ;
#1057 = LINE ( 'NONE', #267, #1047 ) ;
#1058 = ORIENTED_EDGE ( 'NONE', *, *, #1280, .F. ) ;
#1059 = DIRECTION ( 'NONE',  ( -0.000000000000000000, -1.000000000000000000, -0.000000000000000000 ) ) ;
#1060 = ADVANCED_FACE ( 'NONE', ( #921 ), #1215, .F. ) ;
#1061 = FACE_OUTER_BOUND ( 'NONE', #303, .T. ) ;
#1062 = EDGE_LOOP ( 'NONE', ( #141, #99 ) ) ;
#1063 = DIRECTION ( 'NONE',  ( 0.000000000000000000, -0.000000000000000000, 1.000000000000000000 ) ) ;
#1064 = CARTESIAN_POINT ( 'NONE',  ( 90.00000000000000000, 1.000000000000000000, 45.00000000000000000 ) ) ;
#1065 = DIRECTION ( 'NONE',  ( 1.000000000000000000, 0.000000000000000000, 0.000000000000000000 ) ) ;
#1066 = ORIENTED_EDGE ( 'NONE', *, *, #431, .F. ) ;
#1067 = CIRCLE ( 'NONE', #1171, 2.694999999999989182 ) ;
#1068 = EDGE_CURVE ( 'NONE', #152, #1177, #935, .T. ) ;
#1069 = DIRECTION ( 'NONE',  ( -1.000000000000000000, 0.000000000000000000, -0.000000000000000000 ) ) ;
#1070 = EDGE_LOOP ( 'NONE', ( #586, #524, #459, #449 ) ) ;
#1071 = EDGE_CURVE ( 'NONE', #699, #1206, #696, .T. ) ;
#1072 = CIRCLE ( 'NONE', #508, 1.424999999999997380 ) ;
#1073 = AXIS2_PLACEMENT_3D ( 'NONE', #340, #650, #835 ) ;
#1074 = AXIS2_PLACEMENT_3D ( 'NONE', #441, #744, #149 ) ;
#1075 = CARTESIAN_POINT ( 'NONE',  ( 90.00000000000000000, 3.000000000000000000, 45.00000000000000000 ) ) ;
#1076 = VECTOR ( 'NONE', #494, 1000.000000000000000 ) ;
#1077 = SHAPE_DEFINITION_REPRESENTATION ( #75, #1256 ) ;
#1078 = ORIENTED_EDGE ( 'NONE', *, *, #346, .F. ) ;
#1079 = EDGE_CURVE ( 'NONE', #1201, #1186, #204, .T. ) ;
#1080 = CARTESIAN_POINT ( 'NONE',  ( 83.49999999999997158, 5.999999999999998224, 4.499999999999968914 ) ) ;
#1081 = DIRECTION ( 'NONE',  ( -3.083952846180990774E-16, 0.000000000000000000, -1.000000000000000000 ) ) ;
#1082 = FACE_OUTER_BOUND ( 'NONE', #112, .T. ) ;
#1083 = CIRCLE ( 'NONE', #1251, 2.000000000000001776 ) ;
#1084 = EDGE_LOOP ( 'NONE', ( #305, #311 ) ) ;
#1085 = VECTOR ( 'NONE', #786, 1000.000000000000000 ) ;
#1086 = CARTESIAN_POINT ( 'NONE',  ( 86.49999999999998579, 3.000000000000000000, -41.49999999999999289 ) ) ;
#1087 = CARTESIAN_POINT ( 'NONE',  ( 70.08199999999997942, 18.90000066000003898, 39.01499999999996504 ) ) ;
#1088 = DIRECTION ( 'NONE',  ( -0.000000000000000000, 1.000000000000000000, 0.000000000000000000 ) ) ;
#1089 = ORIENTED_EDGE ( 'NONE', *, *, #977, .T. ) ;
#1090 = VECTOR ( 'NONE', #335, 1000.000000000000000 ) ;
#1091 = VECTOR ( 'NONE', #246, 1000.000000000000000 ) ;
#1092 = CARTESIAN_POINT ( 'NONE',  ( 83.49999999999997158, 28.02167813730651602, 6.499999999999966249 ) ) ;
#1093 = AXIS2_PLACEMENT_3D ( 'NONE', #610, #2, #882 ) ;
#1094 = ORIENTED_EDGE ( 'NONE', *, *, #968, .F. ) ;
#1095 = FACE_OUTER_BOUND ( 'NONE', #735, .T. ) ;
#1096 = CARTESIAN_POINT ( 'NONE',  ( 70.08199999999997942, 5.999999999999998224, 39.01499999999996504 ) ) ;
#1097 = EDGE_CURVE ( 'NONE', #433, #832, #337, .T. ) ;
#1098 = ORIENTED_EDGE ( 'NONE', *, *, #977, .F. ) ;
#1099 = DIRECTION ( 'NONE',  ( 0.000000000000000000, 0.000000000000000000, -1.000000000000000000 ) ) ;
#1100 = ORIENTED_EDGE ( 'NONE', *, *, #182, .T. ) ;
#1101 = FACE_OUTER_BOUND ( 'NONE', #692, .T. ) ;
#1102 = CARTESIAN_POINT ( 'NONE',  ( 89.99999999999998579, 3.000000000000000000, -45.00000000000000000 ) ) ;
#1103 = VERTEX_POINT ( 'NONE', #829 ) ;
#1104 = DIRECTION ( 'NONE',  ( 1.000000000000000000, 0.000000000000000000, 0.000000000000000000 ) ) ;
#1105 = DIRECTION ( 'NONE',  ( 1.000000000000000000, 5.551115123125778758E-16, 1.224646799147354440E-16 ) ) ;
#1106 = VERTEX_POINT ( 'NONE', #116 ) ;
#1107 = VECTOR ( 'NONE', #1069, 1000.000000000000000 ) ;
#1108 = PLANE ( 'NONE',  #187 ) ;
#1109 = ORIENTED_EDGE ( 'NONE', *, *, #162, .T. ) ;
#1110 = CARTESIAN_POINT ( 'NONE',  ( -86.49999999999998579, 6.000000000000000000, 41.49999999999999289 ) ) ;
#1111 = EDGE_CURVE ( 'NONE', #179, #28, #251, .T. ) ;
#1112 = DIRECTION ( 'NONE',  ( 5.551115123125778758E-16, -1.000000000000000000, 2.661133787040694438E-16 ) ) ;
#1113 = ORIENTED_EDGE ( 'NONE', *, *, #287, .F. ) ;
#1114 = DIRECTION ( 'NONE',  ( 1.000000000000000000, 1.075797504481738800E-15, 0.000000000000000000 ) ) ;
#1115 = CARTESIAN_POINT ( 'NONE',  ( 72.13757777765761148, 3.000000000000000000, 41.49999999999999289 ) ) ;
#1116 = CARTESIAN_POINT ( 'NONE',  ( 70.08199999999997942, 28.02167813730651602, 40.43999999999996930 ) ) ;
#1117 = EDGE_LOOP ( 'NONE', ( #1050, #914, #1089, #1030 ) ) ;
#1118 = CARTESIAN_POINT ( 'NONE',  ( 86.50000000000000000, 6.000000000000000000, 41.49999999999999289 ) ) ;
#1119 =( GEOMETRIC_REPRESENTATION_CONTEXT ( 3 ) GLOBAL_UNCERTAINTY_ASSIGNED_CONTEXT ( ( #81 ) ) GLOBAL_UNIT_ASSIGNED_CONTEXT ( ( #79, #383, #1161 ) ) REPRESENTATION_CONTEXT ( 'NONE', 'WORKASPACE' ) );
#1120 = CARTESIAN_POINT ( 'NONE',  ( 78.14199999999999591, 18.90000066000003187, 4.899999999999964828 ) ) ;
#1121 = ORIENTED_EDGE ( 'NONE', *, *, #706, .T. ) ;
#1122 = DIRECTION ( 'NONE',  ( -0.000000000000000000, 1.000000000000000000, 0.000000000000000000 ) ) ;
#1123 = CARTESIAN_POINT ( 'NONE',  ( 0.000000000000000000, 6.000000000000000000, 0.000000000000000000 ) ) ;
#1124 = EDGE_CURVE ( 'NONE', #343, #437, #146, .T. ) ;
#1125 = DIRECTION ( 'NONE',  ( 0.000000000000000000, 0.000000000000000000, -1.000000000000000000 ) ) ;
#1126 = VECTOR ( 'NONE', #1081, 1000.000000000000000 ) ;
#1127 = ORIENTED_EDGE ( 'NONE', *, *, #886, .F. ) ;
#1128 = CARTESIAN_POINT ( 'NONE',  ( 89.99999999999998579, 1.000000000000000000, -45.00000000000000000 ) ) ;
#1129 = ORIENTED_EDGE ( 'NONE', *, *, #877, .T. ) ;
#1130 = CARTESIAN_POINT ( 'NONE',  ( 86.50000000000000000, 6.000000000000000000, 41.49999999999999289 ) ) ;
#1131 = FACE_BOUND ( 'NONE', #233, .T. ) ;
#1132 = CARTESIAN_POINT ( 'NONE',  ( -90.00000000000001421, 1.000000000000000000, -45.00000000000000000 ) ) ;
#1133 = CIRCLE ( 'NONE', #1029, 1.999999999999994893 ) ;
#1134 = EDGE_CURVE ( 'NONE', #152, #760, #135, .T. ) ;
#1135 = ORIENTED_EDGE ( 'NONE', *, *, #287, .T. ) ;
#1136 = LINE ( 'NONE', #1118, #1090 ) ;
#1137 = EDGE_CURVE ( 'NONE', #190, #46, #507, .T. ) ;
#1138 = ORIENTED_EDGE ( 'NONE', *, *, #567, .T. ) ;
#1139 = DIRECTION ( 'NONE',  ( 1.000000000000000000, 5.551115123125778758E-16, 1.224646799147354440E-16 ) ) ;
#1140 = CARTESIAN_POINT ( 'NONE',  ( 86.49999999999998579, 6.000000000000000000, -41.49999999999999289 ) ) ;
#1141 = CARTESIAN_POINT ( 'NONE',  ( 14.88199999999997836, 28.02167813730651602, 4.004999999999959925 ) ) ;
#1142 = VERTEX_POINT ( 'NONE', #1219 ) ;
#1143 = AXIS2_PLACEMENT_3D ( 'NONE', #1146, #752, #157 ) ;
#1144 = AXIS2_PLACEMENT_3D ( 'NONE', #802, #30, #629 ) ;
#1145 = ORIENTED_EDGE ( 'NONE', *, *, #395, .T. ) ;
#1146 = CARTESIAN_POINT ( 'NONE',  ( 83.49999999999997158, 28.02167813730651602, 38.49999999999996447 ) ) ;
#1147 = PLANE ( 'NONE',  #352 ) ;
#1148 = DIRECTION ( 'NONE',  ( 1.000000000000000000, 0.000000000000000000, 0.000000000000000000 ) ) ;
#1149 = VERTEX_POINT ( 'NONE', #1203 ) ;
#1150 = EDGE_CURVE ( 'NONE', #433, #28, #1136, .T. ) ;
#1151 = DIRECTION ( 'NONE',  ( -0.000000000000000000, -1.000000000000000000, -0.000000000000000000 ) ) ;
#1152 = DIRECTION ( 'NONE',  ( 1.000000000000000000, -0.000000000000000000, -0.000000000000000000 ) ) ;
#1153 = ORIENTED_EDGE ( 'NONE', *, *, #492, .F. ) ;
#1154 = EDGE_CURVE ( 'NONE', #249, #1230, #429, .T. ) ;
#1155 = DIRECTION ( 'NONE',  ( -0.000000000000000000, -1.000000000000000000, -0.000000000000000000 ) ) ;
#1156 = CARTESIAN_POINT ( 'NONE',  ( 70.08199999999997942, 5.999999999999998224, 40.43999999999996930 ) ) ;
#1157 = AXIS2_PLACEMENT_3D ( 'NONE', #220, #908, #608 ) ;
#1158 = EDGE_LOOP ( 'NONE', ( #638, #1042, #1129, #210 ) ) ;
#1159 = AXIS2_PLACEMENT_3D ( 'NONE', #138, #529, #930 ) ;
#1160 = CARTESIAN_POINT ( 'NONE',  ( 90.00000000000000000, 3.000000000000000000, 45.00000000000000000 ) ) ;
#1161 =( NAMED_UNIT ( * ) SI_UNIT ( $, .STERADIAN. ) SOLID_ANGLE_UNIT ( ) );
#1162 = DIRECTION ( 'NONE',  ( 0.000000000000000000, 0.000000000000000000, -1.000000000000000000 ) ) ;
#1163 = EDGE_CURVE ( 'NONE', #777, #652, #201, .T. ) ;
#1164 = ORIENTED_EDGE ( 'NONE', *, *, #698, .T. ) ;
#1165 = CARTESIAN_POINT ( 'NONE',  ( 14.88199999999997836, 18.90000065999999634, 4.004999999999959925 ) ) ;
#1166 = AXIS2_PLACEMENT_3D ( 'NONE', #522, #958, #842 ) ;
#1167 = VERTEX_POINT ( 'NONE', #732 ) ;
#1168 = VECTOR ( 'NONE', #314, 1000.000000000000000 ) ;
#1169 = EDGE_LOOP ( 'NONE', ( #1191, #1164, #202, #488 ) ) ;
#1170 = EDGE_CURVE ( 'NONE', #403, #747, #588, .T. ) ;
#1171 = AXIS2_PLACEMENT_3D ( 'NONE', #867, #966, #1148 ) ;
#1172 = DIRECTION ( 'NONE',  ( 5.551115123125780730E-16, -1.000000000000000000, 2.661133787040694438E-16 ) ) ;
#1173 = LINE ( 'NONE', #297, #568 ) ;
#1174 = CARTESIAN_POINT ( 'NONE',  ( 83.49999999999997158, 28.02167813730651602, 38.49999999999996447 ) ) ;
#1175 = VECTOR ( 'NONE', #581, 1000.000000000000000 ) ;
#1176 = CARTESIAN_POINT ( 'NONE',  ( 70.08199999999997942, 18.90000066000003898, 40.43999999999996930 ) ) ;
#1177 = VERTEX_POINT ( 'NONE', #632 ) ;
#1178 = AXIS2_PLACEMENT_3D ( 'NONE', #1001, #302, #1187 ) ;
#1179 = CYLINDRICAL_SURFACE ( 'NONE', #205, 1.999999999999994893 ) ;
#1180 = DIRECTION ( 'NONE',  ( 0.000000000000000000, 1.000000000000000000, 0.000000000000000000 ) ) ;
#1181 = DIRECTION ( 'NONE',  ( 0.000000000000000000, -1.000000000000000000, -0.000000000000000000 ) ) ;
#1182 = ORIENTED_EDGE ( 'NONE', *, *, #534, .F. ) ;
#1183 = CLOSED_SHELL ( 'NONE', ( #1048, #1010, #758, #327, #101, #270, #276, #821, #191, #560, #257, #748, #684, #469, #401, #34, #212, #1006, #940, #1269, #421, #892, #479, #870, #653, #916, #787, #369, #250, #1055, #622, #356, #947, #77, #15, #1060, #200, #460, #830, #794, #771, #177, #865, #679, #593, #76 ) ) ;
#1184 = EDGE_CURVE ( 'NONE', #710, #512, #414, .T. ) ;
#1185 = CARTESIAN_POINT ( 'NONE',  ( 14.88199999999997836, 18.90000065999999634, 0.7799999999999617240 ) ) ;
#1186 = VERTEX_POINT ( 'NONE', #625 ) ;
#1187 = DIRECTION ( 'NONE',  ( 0.000000000000000000, -0.000000000000000000, 1.000000000000000000 ) ) ;
#1188 = DIRECTION ( 'NONE',  ( -0.000000000000000000, -1.000000000000000000, -0.000000000000000000 ) ) ;
#1189 = ORIENTED_EDGE ( 'NONE', *, *, #984, .F. ) ;
#1190 = PLANE ( 'NONE',  #1245 ) ;
#1191 = ORIENTED_EDGE ( 'NONE', *, *, #1163, .F. ) ;
#1192 = CARTESIAN_POINT ( 'NONE',  ( 14.88199999999997836, 28.02167813730651602, 2.579999999999961879 ) ) ;
#1193 = DIRECTION ( 'NONE',  ( 0.000000000000000000, 0.000000000000000000, -1.000000000000000000 ) ) ;
#1194 = EDGE_CURVE ( 'NONE', #59, #1260, #933, .T. ) ;
#1195 =( GEOMETRIC_REPRESENTATION_CONTEXT ( 3 ) GLOBAL_UNCERTAINTY_ASSIGNED_CONTEXT ( ( #605 ) ) GLOBAL_UNIT_ASSIGNED_CONTEXT ( ( #1244, #388, #875 ) ) REPRESENTATION_CONTEXT ( 'NONE', 'WORKASPACE' ) );
#1196 = VERTEX_POINT ( 'NONE', #319 ) ;
#1197 = CARTESIAN_POINT ( 'NONE',  ( 70.08199999999997942, 5.999999999999998224, 39.01499999999996504 ) ) ;
#1198 = DIRECTION ( 'NONE',  ( 0.000000000000000000, -1.000000000000000000, -0.000000000000000000 ) ) ;
#1199 = ORIENTED_EDGE ( 'NONE', *, *, #70, .T. ) ;
#1200 = FACE_BOUND ( 'NONE', #455, .T. ) ;
#1201 = VERTEX_POINT ( 'NONE', #126 ) ;
#1202 = EDGE_CURVE ( 'NONE', #1260, #59, #827, .T. ) ;
#1203 = CARTESIAN_POINT ( 'NONE',  ( 89.99999999999998579, 3.000000000000000000, -45.00000000000000000 ) ) ;
#1204 = EDGE_CURVE ( 'NONE', #1103, #433, #716, .T. ) ;
#1205 = DIRECTION ( 'NONE',  ( -1.000000000000000000, 0.000000000000000000, -0.000000000000000000 ) ) ;
#1206 = VERTEX_POINT ( 'NONE', #430 ) ;
#1207 = PLANE ( 'NONE',  #236 ) ;
#1208 = DIRECTION ( 'NONE',  ( -0.000000000000000000, -1.000000000000000000, -0.000000000000000000 ) ) ;
#1209 = CYLINDRICAL_SURFACE ( 'NONE', #905, 3.225000000000005862 ) ;
#1210 = ORIENTED_EDGE ( 'NONE', *, *, #886, .T. ) ;
#1211 = CARTESIAN_POINT ( 'NONE',  ( 83.49999999999997158, 18.90000066000004608, 38.49999999999996447 ) ) ;
#1212 = EDGE_CURVE ( 'NONE', #1230, #249, #203, .T. ) ;
#1213 = CARTESIAN_POINT ( 'NONE',  ( 42.49999999999998579, 18.90000066000001766, 21.49999999999996092 ) ) ;
#1214 = EDGE_LOOP ( 'NONE', ( #792, #656 ) ) ;
#1215 = CYLINDRICAL_SURFACE ( 'NONE', #38, 0.8949999999999982414 ) ;
#1216 = CARTESIAN_POINT ( 'NONE',  ( 83.49999999999997158, 18.90000066000003542, 4.499999999999968914 ) ) ;
#1217 = DIRECTION ( 'NONE',  ( -0.000000000000000000, -1.000000000000000000, -0.000000000000000000 ) ) ;
#1218 = ORIENTED_EDGE ( 'NONE', *, *, #1031, .T. ) ;
#1219 = CARTESIAN_POINT ( 'NONE',  ( 68.02642222234234737, 5.999999999999998224, 41.49999999999999289 ) ) ;
#1220 = AXIS2_PLACEMENT_3D ( 'NONE', #1268, #974, #84 ) ;
#1221 = DIRECTION ( 'NONE',  ( 0.000000000000000000, 0.000000000000000000, 1.000000000000000000 ) ) ;
#1222 = EDGE_CURVE ( 'NONE', #1249, #760, #1259, .T. ) ;
#1223 = VERTEX_POINT ( 'NONE', #422 ) ;
#1224 = CARTESIAN_POINT ( 'NONE',  ( 14.88199999999997836, 5.999999999999998224, 4.004999999999959925 ) ) ;
#1225 = DIRECTION ( 'NONE',  ( 0.000000000000000000, -1.000000000000000000, -0.000000000000000000 ) ) ;
#1226 = DIRECTION ( 'NONE',  ( -1.000000000000000000, 0.000000000000000000, 0.000000000000000000 ) ) ;
#1227 = ORIENTED_EDGE ( 'NONE', *, *, #1097, .T. ) ;
#1228 = LINE ( 'NONE', #938, #695 ) ;
#1229 = CIRCLE ( 'NONE', #444, 3.225000000000005862 ) ;
#1230 = VERTEX_POINT ( 'NONE', #819 ) ;
#1231 = CYLINDRICAL_SURFACE ( 'NONE', #1143, 0.6999999999999853006 ) ;
#1232 = FACE_OUTER_BOUND ( 'NONE', #393, .T. ) ;
#1233 = CARTESIAN_POINT ( 'NONE',  ( 14.88199999999997836, 5.999999999999998224, 5.429999999999957083 ) ) ;
#1234 = ORIENTED_EDGE ( 'NONE', *, *, #339, .F. ) ;
#1235 = ORIENTED_EDGE ( 'NONE', *, *, #61, .T. ) ;
#1236 = CARTESIAN_POINT ( 'NONE',  ( 14.88199999999997836, 28.02167813730651602, 7.229999999999958682 ) ) ;
#1237 = DIRECTION ( 'NONE',  ( 0.000000000000000000, 0.000000000000000000, -1.000000000000000000 ) ) ;
#1238 = LINE ( 'NONE', #766, #313 ) ;
#1239 = CIRCLE ( 'NONE', #673, 0.6999999999999853006 ) ;
#1240 = VECTOR ( 'NONE', #1028, 1000.000000000000000 ) ;
#1241 = VECTOR ( 'NONE', #1208, 1000.000000000000000 ) ;
#1242 = ORIENTED_EDGE ( 'NONE', *, *, #534, .T. ) ;
#1243 = EDGE_CURVE ( 'NONE', #107, #190, #326, .T. ) ;
#1244 =( LENGTH_UNIT ( ) NAMED_UNIT ( * ) SI_UNIT ( .MILLI., .METRE. ) );
#1245 = AXIS2_PLACEMENT_3D ( 'NONE', #709, #294, #307 ) ;
#1246 = EDGE_LOOP ( 'NONE', ( #1113, #181 ) ) ;
#1247 = CARTESIAN_POINT ( 'NONE',  ( 88.99999999999998579, 0.000000000000000000, -44.00000000000000000 ) ) ;
#1248 = DIRECTION ( 'NONE',  ( 0.000000000000000000, -1.000000000000000000, -0.000000000000000000 ) ) ;
#1249 = VERTEX_POINT ( 'NONE', #1023 ) ;
#1250 = EDGE_CURVE ( 'NONE', #503, #420, #1228, .T. ) ;
#1251 = AXIS2_PLACEMENT_3D ( 'NONE', #1035, #1017, #727 ) ;
#1252 = FACE_OUTER_BOUND ( 'NONE', #572, .T. ) ;
#1253 = DIRECTION ( 'NONE',  ( 1.000000000000000000, 0.000000000000000000, 0.000000000000000000 ) ) ;
#1254 = AXIS2_PLACEMENT_3D ( 'NONE', #1096, #1225, #435 ) ;
#1255 = ORIENTED_EDGE ( 'NONE', *, *, #133, .T. ) ;
#1256 = ADVANCED_BREP_SHAPE_REPRESENTATION ( 'base\X2\20142014\X0\board', ( #1286, #1220 ), #1195 ) ;
#1257 = FACE_OUTER_BOUND ( 'NONE', #350, .T. ) ;
#1258 = FACE_OUTER_BOUND ( 'NONE', #818, .T. ) ;
#1259 = CIRCLE ( 'NONE', #37, 3.225000000000005862 ) ;
#1260 = VERTEX_POINT ( 'NONE', #742 ) ;
#1261 = AXIS2_PLACEMENT_3D ( 'NONE', #1197, #312, #640 ) ;
#1262 = AXIS2_PLACEMENT_3D ( 'NONE', #663, #564, #83 ) ;
#1263 = EDGE_CURVE ( 'NONE', #103, #1196, #769, .T. ) ;
#1264 = DIRECTION ( 'NONE',  ( -0.000000000000000000, -1.000000000000000000, -0.000000000000000000 ) ) ;
#1265 = PLANE ( 'NONE',  #969 ) ;
#1266 = ORIENTED_EDGE ( 'NONE', *, *, #1134, .T. ) ;
#1267 = CARTESIAN_POINT ( 'NONE',  ( 14.88199999999997836, 28.02167813730651602, 0.7799999999999617240 ) ) ;
#1268 = CARTESIAN_POINT ( 'NONE',  ( 0.000000000000000000, 0.000000000000000000, 0.000000000000000000 ) ) ;
#1269 = ADVANCED_FACE ( 'NONE', ( #646 ), #481, .T. ) ;
#1270 = DIRECTION ( 'NONE',  ( 0.000000000000000000, 0.000000000000000000, 1.000000000000000000 ) ) ;
#1271 = AXIS2_PLACEMENT_3D ( 'NONE', #871, #360, #271 ) ;
#1272 = LINE ( 'NONE', #700, #1175 ) ;
#1273 = FACE_OUTER_BOUND ( 'NONE', #237, .T. ) ;
#1274 = EDGE_CURVE ( 'NONE', #1106, #190, #493, .T. ) ;
#1275 = CYLINDRICAL_SURFACE ( 'NONE', #854, 1.425000000000002709 ) ;
#1276 = DIRECTION ( 'NONE',  ( 1.000000000000000000, 0.000000000000000000, 0.000000000000000000 ) ) ;
#1277 = ORIENTED_EDGE ( 'NONE', *, *, #1163, .T. ) ;
#1278 = MECHANICAL_DESIGN_GEOMETRIC_PRESENTATION_REPRESENTATION (  '', ( #857 ), #1119 ) ;
#1279 = ORIENTED_EDGE ( 'NONE', *, *, #667, .T. ) ;
#1280 = EDGE_CURVE ( 'NONE', #1186, #1201, #541, .T. ) ;
#1281 = VECTOR ( 'NONE', #796, 1000.000000000000000 ) ;
#1282 = DIRECTION ( 'NONE',  ( 1.000000000000000000, 0.000000000000000000, -3.083952846180990774E-16 ) ) ;
#1283 = EDGE_LOOP ( 'NONE', ( #558, #1234, #876, #562 ) ) ;
#1284 = CARTESIAN_POINT ( 'NONE',  ( 68.02642222234234737, 28.02167813730651602, 41.49999999999999289 ) ) ;
#1285 = CARTESIAN_POINT ( 'NONE',  ( -86.50000000000001421, 6.000000000000000000, -41.49999999999999289 ) ) ;
#1286 = MANIFOLD_SOLID_BREP ( 'Í¹Ì¨-À­Éì3', #1183 ) ;
#1287 = EDGE_LOOP ( 'NONE', ( #873, #898 ) ) ;
ENDSEC;
END-ISO-10303-21;
